<svg xmlns="http://www.w3.org/2000/svg" xmlns:xlink="http://www.w3.org/1999/xlink" xmlns:lucid="lucid" width="2295" height="1070"><g transform="translate(1718 781)" lucid:page-tab-id="0_0"><path d="M-2000-1000h3000V500h-3000z" fill="#fff"/><path d="M-1040-732a8 8 0 0 1 8-8H630.22a8 8 0 0 1 8 8v38.87a8 8 0 0 1-8 8H-1032a8 8 0 0 1-8-8z" stroke="#000" stroke-opacity="0" stroke-width="2" fill="#fff" fill-opacity="0"/><use xlink:href="#a" transform="matrix(1,0,0,1,-1036,-736) translate(721.6112345679012 29.532777777777778)"/><use xlink:href="#b" transform="matrix(1,0,0,1,-1036,-736) translate(871.2235802469136 29.532777777777778)"/><path d="M-496.85-686.92H113.9M-496.83-686.92h-1.02M113.9-686.92h1" stroke="#a9afb8" stroke-width="2" fill="none"/><path d="M-1040-677.13a8 8 0 0 1 8-8H632.1a8 8 0 0 1 8 8v9.13a8 8 0 0 1-8 8H-1032a8 8 0 0 1-8-8z" stroke="#000" stroke-opacity="0" stroke-width="2" fill="#fff" fill-opacity="0"/><use xlink:href="#c" transform="matrix(1,0,0,1,-1035.9999999999989,-681.1263680576811) translate(736.8786728395062 16.042037037037037)"/><use xlink:href="#d" transform="matrix(1,0,0,1,-1035.9999999999989,-681.1263680576811) translate(776.6915329218107 16.042037037037037)"/><use xlink:href="#e" transform="matrix(1,0,0,1,-1035.9999999999989,-681.1263680576811) translate(824.1525411522633 16.042037037037037)"/><use xlink:href="#f" transform="matrix(1,0,0,1,-1035.9999999999989,-681.1263680576811) translate(836.6020267489712 16.042037037037037)"/><use xlink:href="#g" transform="matrix(1,0,0,1,-1035.9999999999989,-681.1263680576811) translate(883.2557304526749 16.042037037037037)"/><use xlink:href="#h" transform="matrix(1,0,0,1,-1035.9999999999989,-681.1263680576811) translate(908.7495576131687 16.042037037037037)"/><path d="M-364.05-460h350.2v660h-350.2z" stroke="#333" stroke-width="2" fill="#fff"/><path d="M-364.05-422.4h350.2m-350.2 268h350.2" stroke="#333" stroke-width="2" fill="none"/><use xlink:href="#i" transform="matrix(1,0,0,1,-356.05153859319876,-452) translate(142.525 14.6)"/><use xlink:href="#j" transform="matrix(1,0,0,1,-352.05153859319876,-414.4) translate(0 86.4)"/><use xlink:href="#k" transform="matrix(1,0,0,1,-352.05153859319876,-414.4) translate(10.95 86.4)"/><use xlink:href="#l" transform="matrix(1,0,0,1,-352.05153859319876,-414.4) translate(50.900000000000006 86.4)"/><use xlink:href="#m" transform="matrix(1,0,0,1,-352.05153859319876,-414.4) translate(60.900000000000006 86.4)"/><use xlink:href="#j" transform="matrix(1,0,0,1,-352.05153859319876,-414.4) translate(0 108)"/><use xlink:href="#n" transform="matrix(1,0,0,1,-352.05153859319876,-414.4) translate(10.95 108)"/><use xlink:href="#l" transform="matrix(1,0,0,1,-352.05153859319876,-414.4) translate(76.85000000000001 108)"/><use xlink:href="#m" transform="matrix(1,0,0,1,-352.05153859319876,-414.4) translate(86.85000000000001 108)"/><use xlink:href="#j" transform="matrix(1,0,0,1,-352.05153859319876,-414.4) translate(0 129.6)"/><use xlink:href="#o" transform="matrix(1,0,0,1,-352.05153859319876,-414.4) translate(10.95 129.6)"/><use xlink:href="#l" transform="matrix(1,0,0,1,-352.05153859319876,-414.4) translate(58.80000000000001 129.6)"/><use xlink:href="#m" transform="matrix(1,0,0,1,-352.05153859319876,-414.4) translate(68.80000000000001 129.6)"/><use xlink:href="#j" transform="matrix(1,0,0,1,-352.05153859319876,-414.4) translate(0 151.20000000000002)"/><use xlink:href="#p" transform="matrix(1,0,0,1,-352.05153859319876,-414.4) translate(10.95 151.20000000000002)"/><use xlink:href="#l" transform="matrix(1,0,0,1,-352.05153859319876,-414.4) translate(209.7 151.20000000000002)"/><use xlink:href="#q" transform="matrix(1,0,0,1,-352.05153859319876,-414.4) translate(219.7 151.20000000000002)"/><use xlink:href="#j" transform="matrix(1,0,0,1,-352.05153859319876,-414.4) translate(0 172.8)"/><use xlink:href="#r" transform="matrix(1,0,0,1,-352.05153859319876,-414.4) translate(10.95 172.8)"/><use xlink:href="#l" transform="matrix(1,0,0,1,-352.05153859319876,-414.4) translate(92.85000000000001 172.8)"/><use xlink:href="#s" transform="matrix(1,0,0,1,-352.05153859319876,-414.4) translate(102.85000000000001 172.8)"/><use xlink:href="#t" transform="matrix(1,0,0,1,-352.05153859319876,-146.40000000002527) translate(0 86.70000000000002)"/><use xlink:href="#u" transform="matrix(1,0,0,1,-352.05153859319876,-146.40000000002527) translate(15.5 86.70000000000002)"/><use xlink:href="#t" transform="matrix(1,0,0,1,-352.05153859319876,-146.40000000002527) translate(0 108.30000000000001)"/><use xlink:href="#v" transform="matrix(1,0,0,1,-352.05153859319876,-146.40000000002527) translate(15.5 108.30000000000001)"/><use xlink:href="#t" transform="matrix(1,0,0,1,-352.05153859319876,-146.40000000002527) translate(0 129.9)"/><use xlink:href="#w" transform="matrix(1,0,0,1,-352.05153859319876,-146.40000000002527) translate(15.5 129.9)"/><use xlink:href="#t" transform="matrix(1,0,0,1,-352.05153859319876,-146.40000000002527) translate(0 151.50000000000003)"/><use xlink:href="#x" transform="matrix(1,0,0,1,-352.05153859319876,-146.40000000002527) translate(15.5 151.50000000000003)"/><use xlink:href="#t" transform="matrix(1,0,0,1,-352.05153859319876,-146.40000000002527) translate(0 173.10000000000002)"/><use xlink:href="#y" transform="matrix(1,0,0,1,-352.05153859319876,-146.40000000002527) translate(15.5 173.10000000000002)"/><use xlink:href="#t" transform="matrix(1,0,0,1,-352.05153859319876,-146.40000000002527) translate(0 194.70000000000002)"/><use xlink:href="#z" transform="matrix(1,0,0,1,-352.05153859319876,-146.40000000002527) translate(15.5 194.70000000000002)"/><use xlink:href="#t" transform="matrix(1,0,0,1,-352.05153859319876,-146.40000000002527) translate(0 216.3)"/><use xlink:href="#A" transform="matrix(1,0,0,1,-352.05153859319876,-146.40000000002527) translate(15.5 216.3)"/><use xlink:href="#t" transform="matrix(1,0,0,1,-352.05153859319876,-146.40000000002527) translate(0 237.9)"/><use xlink:href="#B" transform="matrix(1,0,0,1,-352.05153859319876,-146.40000000002527) translate(15.5 237.9)"/><use xlink:href="#t" transform="matrix(1,0,0,1,-352.05153859319876,-146.40000000002527) translate(0 259.5)"/><use xlink:href="#C" transform="matrix(1,0,0,1,-352.05153859319876,-146.40000000002527) translate(15.5 259.5)"/><path d="M-1660-301.87h328.3v540H-1660z" stroke="#333" stroke-width="2" fill="#fff"/><path d="M-1660-264.26h328.3M-1660-77.86h328.3" stroke="#333" stroke-width="2" fill="none"/><use xlink:href="#D" transform="matrix(1,0,0,1,-1652,-293.8650341685383) translate(104.625 14.6)"/><use xlink:href="#j" transform="matrix(1,0,0,1,-1648,-256.26503416853825) translate(0 56.69999999999999)"/><use xlink:href="#k" transform="matrix(1,0,0,1,-1648,-256.26503416853825) translate(10.95 56.69999999999999)"/><use xlink:href="#l" transform="matrix(1,0,0,1,-1648,-256.26503416853825) translate(50.900000000000006 56.69999999999999)"/><use xlink:href="#m" transform="matrix(1,0,0,1,-1648,-256.26503416853825) translate(60.900000000000006 56.69999999999999)"/><use xlink:href="#j" transform="matrix(1,0,0,1,-1648,-256.26503416853825) translate(0 78.3)"/><use xlink:href="#E" transform="matrix(1,0,0,1,-1648,-256.26503416853825) translate(10.95 78.3)"/><use xlink:href="#l" transform="matrix(1,0,0,1,-1648,-256.26503416853825) translate(79.9 78.3)"/><use xlink:href="#m" transform="matrix(1,0,0,1,-1648,-256.26503416853825) translate(89.9 78.3)"/><use xlink:href="#j" transform="matrix(1,0,0,1,-1648,-256.26503416853825) translate(0 99.9)"/><use xlink:href="#F" transform="matrix(1,0,0,1,-1648,-256.26503416853825) translate(10.95 99.9)"/><use xlink:href="#l" transform="matrix(1,0,0,1,-1648,-256.26503416853825) translate(104.9 99.9)"/><use xlink:href="#m" transform="matrix(1,0,0,1,-1648,-256.26503416853825) translate(114.9 99.9)"/><use xlink:href="#j" transform="matrix(1,0,0,1,-1648,-256.26503416853825) translate(0 121.5)"/><use xlink:href="#G" transform="matrix(1,0,0,1,-1648,-256.26503416853825) translate(10.95 121.5)"/><use xlink:href="#l" transform="matrix(1,0,0,1,-1648,-256.26503416853825) translate(46.8 121.5)"/><use xlink:href="#s" transform="matrix(1,0,0,1,-1648,-256.26503416853825) translate(56.8 121.5)"/><g><use xlink:href="#t" transform="matrix(1,0,0,1,-1648,-69.86503416856357) translate(0 56.40000000000001)"/><use xlink:href="#H" transform="matrix(1,0,0,1,-1648,-69.86503416856357) translate(15.5 56.40000000000001)"/><use xlink:href="#t" transform="matrix(1,0,0,1,-1648,-69.86503416856357) translate(0 78.00000000000001)"/><use xlink:href="#I" transform="matrix(1,0,0,1,-1648,-69.86503416856357) translate(15.5 78.00000000000001)"/><use xlink:href="#t" transform="matrix(1,0,0,1,-1648,-69.86503416856357) translate(0 99.60000000000002)"/><use xlink:href="#J" transform="matrix(1,0,0,1,-1648,-69.86503416856357) translate(15.5 99.60000000000002)"/><use xlink:href="#t" transform="matrix(1,0,0,1,-1648,-69.86503416856357) translate(0 121.20000000000003)"/><use xlink:href="#K" transform="matrix(1,0,0,1,-1648,-69.86503416856357) translate(15.5 121.20000000000003)"/><use xlink:href="#t" transform="matrix(1,0,0,1,-1648,-69.86503416856357) translate(0 142.80000000000004)"/><use xlink:href="#L" transform="matrix(1,0,0,1,-1648,-69.86503416856357) translate(15.5 142.80000000000004)"/><use xlink:href="#t" transform="matrix(1,0,0,1,-1648,-69.86503416856357) translate(0 164.4)"/><use xlink:href="#M" transform="matrix(1,0,0,1,-1648,-69.86503416856357) translate(15.5 164.4)"/><use xlink:href="#t" transform="matrix(1,0,0,1,-1648,-69.86503416856357) translate(0 186.00000000000003)"/><use xlink:href="#N" transform="matrix(1,0,0,1,-1648,-69.86503416856357) translate(15.5 186.00000000000003)"/><use xlink:href="#t" transform="matrix(1,0,0,1,-1648,-69.86503416856357) translate(0 207.6)"/><use xlink:href="#O" transform="matrix(1,0,0,1,-1648,-69.86503416856357) translate(15.5 207.6)"/><use xlink:href="#t" transform="matrix(1,0,0,1,-1648,-69.86503416856357) translate(0 229.20000000000002)"/><use xlink:href="#P" transform="matrix(1,0,0,1,-1648,-69.86503416856357) translate(15.5 229.20000000000002)"/><use xlink:href="#t" transform="matrix(1,0,0,1,-1648,-69.86503416856357) translate(0 250.79999999999998)"/><use xlink:href="#Q" transform="matrix(1,0,0,1,-1648,-69.86503416856357) translate(15.5 250.79999999999998)"/></g><path d="M-995.85-720h328.3v324h-328.3z" stroke="#333" stroke-width="2" fill="#fff"/><path d="M-995.85-682.4h328.3m-328.3 121.6h328.3" stroke="#333" stroke-width="2" fill="none"/><g><use xlink:href="#R" transform="matrix(1,0,0,1,-987.8490566037738,-712) translate(113.65 14.6)"/></g><g><use xlink:href="#j" transform="matrix(1,0,0,1,-983.8490566037738,-674.4) translate(0 56.6)"/><use xlink:href="#k" transform="matrix(1,0,0,1,-983.8490566037738,-674.4) translate(10.95 56.6)"/><use xlink:href="#l" transform="matrix(1,0,0,1,-983.8490566037738,-674.4) translate(50.900000000000006 56.6)"/><use xlink:href="#s" transform="matrix(1,0,0,1,-983.8490566037738,-674.4) translate(60.900000000000006 56.6)"/></g><g><use xlink:href="#t" transform="matrix(1,0,0,1,-983.8490566037738,-552.8000000000253) translate(0 56.5)"/><use xlink:href="#S" transform="matrix(1,0,0,1,-983.8490566037738,-552.8000000000253) translate(15.5 56.5)"/><use xlink:href="#t" transform="matrix(1,0,0,1,-983.8490566037738,-552.8000000000253) translate(0 78.10000000000001)"/><use xlink:href="#T" transform="matrix(1,0,0,1,-983.8490566037738,-552.8000000000253) translate(15.5 78.10000000000001)"/><use xlink:href="#t" transform="matrix(1,0,0,1,-983.8490566037738,-552.8000000000253) translate(0 99.70000000000002)"/><use xlink:href="#U" transform="matrix(1,0,0,1,-983.8490566037738,-552.8000000000253) translate(15.5 99.70000000000002)"/></g><path d="M-995.85-236.87h328.3v367h-328.3z" stroke="#333" stroke-width="2" fill="#fff"/><path d="M-995.85-199.26h328.3m-328.3 164.8h328.3" stroke="#333" stroke-width="2" fill="none"/><g><use xlink:href="#V" transform="matrix(1,0,0,1,-987.8490566037738,-228.86503416853824) translate(104.675 14.6)"/></g><g><use xlink:href="#W" transform="matrix(1,0,0,1,-983.8490566037738,-191.26503416853825) translate(0 56.5)"/><use xlink:href="#j" transform="matrix(1,0,0,1,-983.8490566037738,-191.26503416853825) translate(0 78.10000000000001)"/><use xlink:href="#X" transform="matrix(1,0,0,1,-983.8490566037738,-191.26503416853825) translate(10.95 78.10000000000001)"/><use xlink:href="#l" transform="matrix(1,0,0,1,-983.8490566037738,-191.26503416853825) translate(98.9 78.10000000000001)"/><use xlink:href="#q" transform="matrix(1,0,0,1,-983.8490566037738,-191.26503416853825) translate(108.9 78.10000000000001)"/><use xlink:href="#j" transform="matrix(1,0,0,1,-983.8490566037738,-191.26503416853825) translate(0 99.70000000000002)"/><use xlink:href="#Y" transform="matrix(1,0,0,1,-983.8490566037738,-191.26503416853825) translate(10.95 99.70000000000002)"/><use xlink:href="#l" transform="matrix(1,0,0,1,-983.8490566037738,-191.26503416853825) translate(75.85000000000001 99.70000000000002)"/><use xlink:href="#Z" transform="matrix(1,0,0,1,-983.8490566037738,-191.26503416853825) translate(85.85000000000001 99.70000000000002)"/></g><g><use xlink:href="#t" transform="matrix(1,0,0,1,-983.8490566037738,-26.46503416856359) translate(0 56.5)"/><use xlink:href="#aa" transform="matrix(1,0,0,1,-983.8490566037738,-26.46503416856359) translate(15.5 56.5)"/><use xlink:href="#t" transform="matrix(1,0,0,1,-983.8490566037738,-26.46503416856359) translate(0 78.10000000000001)"/><use xlink:href="#ab" transform="matrix(1,0,0,1,-983.8490566037738,-26.46503416856359) translate(15.5 78.10000000000001)"/><use xlink:href="#t" transform="matrix(1,0,0,1,-983.8490566037738,-26.46503416856359) translate(0 99.70000000000002)"/><use xlink:href="#ac" transform="matrix(1,0,0,1,-983.8490566037738,-26.46503416856359) translate(15.5 99.70000000000002)"/></g><path d="M-616.5-100.37h-19.3v-1.95h19.45zm182.36-174.97h-75.62l-.82.06-.77.18-.73.3-.67.42-.6.5-.5.6-.42.68-.3.73-.2.76-.05.82v162.97l-.1 1.05-.24 1.06-.42 1.03-.57.93-.72.83-.83.7-.93.57-1 .42-1.08.25-1.06.08h-42.07l.07-.97-.07-.98h42l.82-.06.75-.2.73-.3.67-.4.6-.5.5-.6.42-.68.3-.73.2-.76.06-.82v-162.98l.08-1.05.26-1.08.42-1 .57-.94.72-.83.83-.7.93-.6 1-.4 1.08-.26 1.06-.1H-434zm68.1 0h-32.22l.08-.98-.08-.97h32.2z" stroke="#5e5e5e" stroke-width=".05" fill="#5e5e5e"/><path d="M-365.05-275.34h-1.03v-1.95h1.03z" fill="#5e5e5e"/><path stroke="#5e5e5e" stroke-width=".05" fill="#5e5e5e"/><path d="M-635.43-101.34l-14.85 14.85-14.85-14.84 14.85-14.85z" fill="#fff"/><path d="M-634.06-101.34l-16.22 16.23-16.23-16.24 16.22-16.23zm-29.7 0l13.48 13.47 13.47-13.47-13.48-13.47z" stroke="#5e5e5e" stroke-width=".05" fill="#5e5e5e"/><path d="M-433.06-276.32A14.67 14.67 0 0 1-418.4-291h4.55a14.67 14.67 0 0 1 14.66 14.68 14.67 14.67 0 0 1-14.65 14.67h-4.55a14.67 14.67 0 0 1-14.66-14.67zM-615.43-101.34A14.67 14.67 0 0 1-600.76-116h21.33a14.67 14.67 0 0 1 14.67 14.66 14.67 14.67 0 0 1-14.67 14.66h-21.33a14.67 14.67 0 0 1-14.67-14.66z" stroke="#5e5e5e" stroke-width="2" fill-opacity="0"/><g><use xlink:href="#ad" transform="matrix(1,0,0,1,-421.0633442942937,-286.98579947696965) translate(0.004999999999999893 14.222222222222223)"/></g><g><use xlink:href="#ae" transform="matrix(1,0,0,1,-603.4266670924586,-112.01003846699179) translate(0.005000000000000782 14.222222222222223)"/></g><path d="M-830.72-268.62h-1.95v-4.83h1.95zm0-36.17h-1.95v-48.25h1.95zm0-79.58h-1.95V-394h1.95z" stroke="#5e5e5e" stroke-width=".05" fill="#5e5e5e"/><path d="M-830.72-393.97h-1.95V-395h1.95z" fill="#5e5e5e"/><path stroke="#5e5e5e" stroke-width=".05" fill="#5e5e5e"/><path d="M-816.85-254.13l-14.85 14.85-14.85-14.85 14.85-14.85z" fill="#fff"/><path d="M-815.47-254.13l-16.23 16.23-16.23-16.23 16.23-16.23zm-29.7 0l13.47 13.47 13.47-13.47-13.47-13.47z" stroke="#5e5e5e" stroke-width=".05" fill="#5e5e5e"/><path d="M-857.03-289.12a14.67 14.67 0 0 1 14.66-14.67h21.34a14.67 14.67 0 0 1 14.66 14.68 14.67 14.67 0 0 1-14.66 14.67h-21.34a14.67 14.67 0 0 1-14.66-14.67zM-848.64-368.7a14.67 14.67 0 0 1 14.67-14.68h4.54a14.67 14.67 0 0 1 14.67 14.67 14.67 14.67 0 0 1-14.67 14.65h-4.54a14.67 14.67 0 0 1-14.67-14.66z" stroke="#5e5e5e" stroke-width="2" fill-opacity="0"/><g><use xlink:href="#ae" transform="matrix(1,0,0,1,-845.0314465408807,-299.7867849948459) translate(0.005000000000000782 14.222222222222223)"/></g><g><use xlink:href="#ad" transform="matrix(1,0,0,1,-836.6363848124856,-379.38007813092327) translate(0.004999999999999893 14.222222222222223)"/></g><path d="M-1306.5-30.9h-23.2v-1.94h23.37zm226.2-21.5h-77.43l-.83.07-.77.2-.72.3-.67.4-.6.5-.52.6-.4.68-.3.73-.2.77-.06.82v9.5l-.08 1.06-.26 1.06-.42 1-.57.94-.7.83-.84.7-.94.58-1.02.42-1.06.26-1.05.08h-100.87l.07-.96-.07-.98h100.8l.8-.06.78-.2.73-.3.68-.4.6-.5.5-.6.42-.7.3-.7.2-.78.05-.82v-9.5l.08-1.06.26-1.06.4-1 .58-.95.7-.83.85-.7.93-.58 1-.42 1.08-.26 1.05-.08h77.67zm52.7 0v-.18zm0-1.75v-.2z" stroke="#5e5e5e" stroke-width=".05" fill="#5e5e5e"/><path d="M-1329.67-30.9h-1.03v-1.94h1.03z" fill="#5e5e5e"/><path stroke="#5e5e5e" stroke-width=".05" fill="#5e5e5e"/><path d="M-998.26-53.37l-14.85 14.85-14.47-14.45.03-.4-.03-.4 14.46-14.44z" fill="#fff"/><path d="M-996.88-53.37l-16.23 16.23-14.57-14.55.13-1.66-.13-1.68 14.56-14.55zm-29.7 0l13.47 13.47 13.46-13.47-13.47-13.46z" stroke="#5e5e5e" stroke-width=".05" fill="#5e5e5e"/><path d="M-1305.4-31.86a14.67 14.67 0 0 1 14.66-14.67h4.54a14.67 14.67 0 0 1 14.67 14.67 14.67 14.67 0 0 1-14.67 14.66h-4.54a14.67 14.67 0 0 1-14.67-14.66zM-1079.2-53.37a14.67 14.67 0 0 1 14.66-14.66h21.33a14.67 14.67 0 0 1 14.66 14.66 14.67 14.67 0 0 1-14.67 14.67h-21.34a14.67 14.67 0 0 1-14.67-14.66z" stroke="#5e5e5e" stroke-width="2" fill-opacity="0"/><g><use xlink:href="#ad" transform="matrix(1,0,0,1,-1293.406320533968,-42.531700835204944) translate(0.004999999999999893 14.222222222222223)"/></g><g><use xlink:href="#ae" transform="matrix(1,0,0,1,-1067.2070489673579,-64.03170083520492) translate(0.005000000000000782 14.222222222222223)"/></g><path d="M160-374a6 6 0 0 1 6-6h348a6 6 0 0 1 6 6v212a6 6 0 0 1-6 6H166a6 6 0 0 1-6-6z" stroke="#3a414a" stroke-width="2" fill="#fff"/><path d="M160-337.33h360m-360 117.5h360" stroke="#3a414a" stroke-width="2" fill="none"/><g><use xlink:href="#af" transform="matrix(1,0,0,1,168,-372) translate(91.2283950617284 17.944444444444443)"/><use xlink:href="#ag" transform="matrix(1,0,0,1,168,-372) translate(207.21604938271605 17.944444444444443)"/></g><g><use xlink:href="#ah" transform="matrix(1,0,0,1,172,-329.3333333333333) translate(142.7530864197531 28.77777777777778)"/><use xlink:href="#ai" transform="matrix(1,0,0,1,172,-329.3333333333333) translate(131.05555555555554 55.44444444444445)"/><use xlink:href="#aj" transform="matrix(1,0,0,1,172,-329.3333333333333) translate(144.57407407407408 55.44444444444445)"/><use xlink:href="#ak" transform="matrix(1,0,0,1,172,-329.3333333333333) translate(103.30864197530863 82.11111111111111)"/><use xlink:href="#al" transform="matrix(1,0,0,1,172,-329.3333333333333) translate(116.82716049382715 82.11111111111111)"/></g><path d="M158-312.9H79.07a6 6 0 0 1-6-6v-4.3a6 6 0 0 0-6-6h-78.93" stroke="#5e5e5e" stroke-width="2" fill="none"/><path d="M159-311.92h-1.03v-1.95H159zM-11.84-328.23h-1.02v-1.95h1.02z" stroke="#5e5e5e" stroke-width=".05" fill="#5e5e5e"/><defs><path fill="#a9afb8" d="M199 0l-22-63H83L61 0H9l90-248h61L250 0h-51zm-33-102l-36-108c-10 38-24 72-36 108h72" id="am"/><path fill="#a9afb8" d="M135-194c53 0 70 44 70 98 0 56-19 98-73 100-31 1-45-17-59-34 3 33 2 69 2 105H25l-1-265h48c2 10 0 23 3 31 11-24 29-35 60-35zM114-30c33 0 39-31 40-66 0-38-9-64-40-64-56 0-55 130 0 130" id="an"/><path fill="#a9afb8" d="M25 0v-261h50V0H25" id="ao"/><path fill="#a9afb8" d="M25-224v-37h50v37H25zM25 0v-190h50V0H25" id="ap"/><path fill="#a9afb8" d="M190-63c-7 42-38 67-86 67-59 0-84-38-90-98-12-110 154-137 174-36l-49 2c-2-19-15-32-35-32-30 0-35 28-38 64-6 74 65 87 74 30" id="aq"/><path fill="#a9afb8" d="M133-34C117-15 103 5 69 4 32 3 11-16 11-54c-1-60 55-63 116-61 1-26-3-47-28-47-18 1-26 9-28 27l-52-2c7-38 36-58 82-57s74 22 75 68l1 82c-1 14 12 18 25 15v27c-30 8-71 5-69-32zm-48 3c29 0 43-24 42-57-32 0-66-3-65 30 0 17 8 27 23 27" id="ar"/><path fill="#a9afb8" d="M115-3C79 11 28 4 28-45v-112H4v-33h27l15-45h31v45h36v33H77v99c-1 23 16 31 38 25v30" id="as"/><path fill="#a9afb8" d="M110-194c64 0 96 36 96 99 0 64-35 99-97 99-61 0-95-36-95-99 0-62 34-99 96-99zm-1 164c35 0 45-28 45-65 0-40-10-65-43-65-34 0-45 26-45 65 0 36 10 65 43 65" id="at"/><path fill="#a9afb8" d="M135-194c87-1 58 113 63 194h-50c-7-57 23-157-34-157-59 0-34 97-39 157H25l-1-190h47c2 12-1 28 3 38 12-26 28-41 61-42" id="au"/><g id="a"><use transform="matrix(0.0728395061728395,0,0,0.0728395061728395,0,0)" xlink:href="#am"/><use transform="matrix(0.0728395061728395,0,0,0.0728395061728395,18.86543209876543,0)" xlink:href="#an"/><use transform="matrix(0.0728395061728395,0,0,0.0728395061728395,34.81728395061728,0)" xlink:href="#an"/><use transform="matrix(0.0728395061728395,0,0,0.0728395061728395,50.76913580246913,0)" xlink:href="#ao"/><use transform="matrix(0.0728395061728395,0,0,0.0728395061728395,58.05308641975308,0)" xlink:href="#ap"/><use transform="matrix(0.0728395061728395,0,0,0.0728395061728395,65.33703703703704,0)" xlink:href="#aq"/><use transform="matrix(0.0728395061728395,0,0,0.0728395061728395,79.90493827160493,0)" xlink:href="#ar"/><use transform="matrix(0.0728395061728395,0,0,0.0728395061728395,94.47283950617283,0)" xlink:href="#as"/><use transform="matrix(0.0728395061728395,0,0,0.0728395061728395,103.14074074074074,0)" xlink:href="#ap"/><use transform="matrix(0.0728395061728395,0,0,0.0728395061728395,110.42469135802469,0)" xlink:href="#at"/><use transform="matrix(0.0728395061728395,0,0,0.0728395061728395,126.37654320987654,0)" xlink:href="#au"/></g><path fill="#a9afb8" d="M275 0h-61l-44-196L126 0H64L0-248h53L97-49l45-199h58l43 199 44-199h52" id="av"/><path fill="#a9afb8" d="M88-194c31-1 46 15 58 34l-1-101h50l1 261h-48c-2-10 0-23-3-31C134-8 116 4 84 4 32 4 16-41 15-95c0-56 19-97 73-99zm17 164c33 0 40-30 41-66 1-37-9-64-41-64s-38 30-39 65c0 43 13 65 39 65" id="aw"/><g id="b"><use transform="matrix(0.0728395061728395,0,0,0.0728395061728395,0,0)" xlink:href="#av"/><use transform="matrix(0.0728395061728395,0,0,0.0728395061728395,23.74567901234568,0)" xlink:href="#ar"/><use transform="matrix(0.0728395061728395,0,0,0.0728395061728395,38.31358024691358,0)" xlink:href="#aq"/><use transform="matrix(0.0728395061728395,0,0,0.0728395061728395,52.88148148148148,0)" xlink:href="#aw"/><use transform="matrix(0.0728395061728395,0,0,0.0728395061728395,68.83333333333333,0)" xlink:href="#at"/></g><path fill="#a9afb8" d="M233-177c-1 41-23 64-60 70L243 0h-38l-65-103H63V0H30v-248c88 3 205-21 203 71zM63-129c60-2 137 13 137-47 0-61-80-42-137-45v92" id="ax"/><path fill="#a9afb8" d="M100-194c63 0 86 42 84 106H49c0 40 14 67 53 68 26 1 43-12 49-29l28 8c-11 28-37 45-77 45C44 4 14-33 15-96c1-61 26-98 85-98zm52 81c6-60-76-77-97-28-3 7-6 17-6 28h103" id="ay"/><path fill="#a9afb8" d="M210-169c-67 3-38 105-44 169h-31v-121c0-29-5-50-35-48C34-165 62-65 56 0H25l-1-190h30c1 10-1 24 2 32 10-44 99-50 107 0 11-21 27-35 58-36 85-2 47 119 55 194h-31v-121c0-29-5-49-35-48" id="az"/><path fill="#a9afb8" d="M24-231v-30h32v30H24zM24 0v-190h32V0H24" id="aA"/><g id="c"><use transform="matrix(0.04248971193415638,0,0,0.04248971193415638,0,0)" xlink:href="#ax"/><use transform="matrix(0.04248971193415638,0,0,0.04248971193415638,11.004835390946502,0)" xlink:href="#ay"/><use transform="matrix(0.04248971193415638,0,0,0.04248971193415638,19.502777777777776,0)" xlink:href="#az"/><use transform="matrix(0.04248971193415638,0,0,0.04248971193415638,32.20720164609053,0)" xlink:href="#aA"/></g><path fill="#a9afb8" d="M160-131c35 5 61 23 61 61C221 17 115-2 30 0v-248c76 3 177-17 177 60 0 33-19 50-47 57zm-97-11c50-1 110 9 110-42 0-47-63-36-110-37v79zm0 115c55-2 124 14 124-45 0-56-70-42-124-44v89" id="aB"/><path fill="#a9afb8" d="M114-163C36-179 61-72 57 0H25l-1-190h30c1 12-1 29 2 39 6-27 23-49 58-41v29" id="aC"/><path fill="#a9afb8" d="M141-36C126-15 110 5 73 4 37 3 15-17 15-53c-1-64 63-63 125-63 3-35-9-54-41-54-24 1-41 7-42 31l-33-3c5-37 33-52 76-52 45 0 72 20 72 64v82c-1 20 7 32 28 27v20c-31 9-61-2-59-35zM48-53c0 20 12 33 32 33 41-3 63-29 60-74-43 2-92-5-92 41" id="aD"/><path fill="#a9afb8" d="M24 0v-261h32V0H24" id="aE"/><g id="d"><use transform="matrix(0.04248971193415638,0,0,0.04248971193415638,0,0)" xlink:href="#aB"/><use transform="matrix(0.04248971193415638,0,0,0.04248971193415638,10.19753086419753,0)" xlink:href="#ay"/><use transform="matrix(0.04248971193415638,0,0,0.04248971193415638,18.695473251028805,0)" xlink:href="#aC"/><use transform="matrix(0.04248971193415638,0,0,0.04248971193415638,23.751748971193415,0)" xlink:href="#aD"/><use transform="matrix(0.04248971193415638,0,0,0.04248971193415638,32.24969135802469,0)" xlink:href="#aA"/><use transform="matrix(0.04248971193415638,0,0,0.04248971193415638,35.60637860082304,0)" xlink:href="#aE"/></g><path fill="#a9afb8" d="M32 76v-337h29V76H32" id="aF"/><use transform="matrix(0.04248971193415638,0,0,0.04248971193415638,0,0)" xlink:href="#aF" id="e"/><path fill="#a9afb8" d="M240 0l2-218c-23 76-54 145-80 218h-23L58-218 59 0H30v-248h44l77 211c21-75 51-140 76-211h43V0h-30" id="aG"/><path fill="#a9afb8" d="M96-169c-40 0-48 33-48 73s9 75 48 75c24 0 41-14 43-38l32 2c-6 37-31 61-74 61-59 0-76-41-82-99-10-93 101-131 147-64 4 7 5 14 7 22l-32 3c-4-21-16-35-41-35" id="aH"/><path fill="#a9afb8" d="M106-169C34-169 62-67 57 0H25v-261h32l-1 103c12-21 28-36 61-36 89 0 53 116 60 194h-32v-121c2-32-8-49-39-48" id="aI"/><g id="f"><use transform="matrix(0.04248971193415638,0,0,0.04248971193415638,0,0)" xlink:href="#aG"/><use transform="matrix(0.04248971193415638,0,0,0.04248971193415638,12.704423868312757,0)" xlink:href="#aD"/><use transform="matrix(0.04248971193415638,0,0,0.04248971193415638,21.20236625514403,0)" xlink:href="#aC"/><use transform="matrix(0.04248971193415638,0,0,0.04248971193415638,26.25864197530864,0)" xlink:href="#aH"/><use transform="matrix(0.04248971193415638,0,0,0.04248971193415638,33.90679012345679,0)" xlink:href="#aI"/></g><path fill="#a9afb8" d="M101-251c82-7 93 87 43 132L82-64C71-53 59-42 53-27h129V0H18c2-99 128-94 128-182 0-28-16-43-45-43s-46 15-49 41l-32-3c6-41 34-60 81-64" id="aJ"/><path fill="#a9afb8" d="M155-56V0h-30v-56H8v-25l114-167h33v167h35v25h-35zm-30-156c-27 46-58 90-88 131h88v-131" id="aK"/><path fill="#a9afb8" d="M68-38c1 34 0 65-14 84H32c9-13 17-26 17-46H33v-38h35" id="aL"/><g id="g"><use transform="matrix(0.04248971193415638,0,0,0.04248971193415638,0,0)" xlink:href="#aJ"/><use transform="matrix(0.04248971193415638,0,0,0.04248971193415638,8.497942386831275,0)" xlink:href="#aK"/><use transform="matrix(0.04248971193415638,0,0,0.04248971193415638,16.99588477366255,0)" xlink:href="#aL"/></g><path fill="#a9afb8" d="M101-251c68 0 85 55 85 127S166 4 100 4C33 4 14-52 14-124c0-73 17-127 87-127zm-1 229c47 0 54-49 54-102s-4-102-53-102c-51 0-55 48-55 102 0 53 5 102 54 102" id="aM"/><path fill="#a9afb8" d="M54-142c48-35 137-8 131 61C196 18 31 33 14-55l32-4c7 23 22 37 52 37 35-1 51-22 54-58 4-55-73-65-99-34H22l8-134h141v27H59" id="aN"/><g id="h"><use transform="matrix(0.04248971193415638,0,0,0.04248971193415638,0,0)" xlink:href="#aJ"/><use transform="matrix(0.04248971193415638,0,0,0.04248971193415638,8.497942386831275,0)" xlink:href="#aM"/><use transform="matrix(0.04248971193415638,0,0,0.04248971193415638,16.99588477366255,0)" xlink:href="#aJ"/><use transform="matrix(0.04248971193415638,0,0,0.04248971193415638,25.493827160493822,0)" xlink:href="#aN"/></g><path fill="#333" d="M238-95c0 69-44 99-111 99C63 4 22-25 22-93v-155h51v151c-1 38 19 59 55 60 90 1 49-130 58-211h52v153" id="aO"/><path fill="#333" d="M137-138c1-29-70-34-71-4 15 46 118 7 119 86 1 83-164 76-172 9l43-7c4 19 20 25 44 25 33 8 57-30 24-41C81-84 22-81 20-136c-2-80 154-74 161-7" id="aP"/><path fill="#333" d="M185-48c-13 30-37 53-82 52C43 2 14-33 14-96s30-98 90-98c62 0 83 45 84 108H66c0 31 8 55 39 56 18 0 30-7 34-22zm-45-69c5-46-57-63-70-21-2 6-4 13-4 21h74" id="aQ"/><path fill="#333" d="M135-150c-39-12-60 13-60 57V0H25l-1-190h47c2 13-1 29 3 40 6-28 27-53 61-41v41" id="aR"/><g id="i"><use transform="matrix(0.05,0,0,0.05,0,0)" xlink:href="#aO"/><use transform="matrix(0.05,0,0,0.05,12.950000000000001,0)" xlink:href="#aP"/><use transform="matrix(0.05,0,0,0.05,22.950000000000003,0)" xlink:href="#aQ"/><use transform="matrix(0.05,0,0,0.05,32.95,0)" xlink:href="#aR"/><use transform="matrix(0.05,0,0,0.05,39.95,0)" xlink:href="#aP"/></g><path fill="#333" d="M16-82v-28h88v28H16" id="aS"/><use transform="matrix(0.05,0,0,0.05,0,0)" xlink:href="#aS" id="j"/><path fill="#333" d="M117-194c89-4 53 116 60 194h-32v-121c0-31-8-49-39-48C34-167 62-67 57 0H25l-1-190h30c1 10-1 24 2 32 11-22 29-35 61-36" id="aT"/><path fill="#333" d="M100-194c62-1 85 37 85 99 1 63-27 99-86 99S16-35 15-95c0-66 28-99 85-99zM99-20c44 1 53-31 53-75 0-43-8-75-51-75s-53 32-53 75 10 74 51 75" id="aU"/><path fill="#333" d="M210-169c-67 3-38 105-44 169h-31v-121c0-29-5-50-35-48C34-165 62-65 56 0H25l-1-190h30c1 10-1 24 2 32 10-44 99-50 107 0 11-21 27-35 58-36 85-2 47 119 55 194h-31v-121c0-29-5-49-35-48" id="aV"/><g id="k"><use transform="matrix(0.05,0,0,0.05,0,0)" xlink:href="#aT"/><use transform="matrix(0.05,0,0,0.05,10,0)" xlink:href="#aU"/><use transform="matrix(0.05,0,0,0.05,20,0)" xlink:href="#aV"/></g><path fill="#333" d="M33-154v-36h34v36H33zM33 0v-36h34V0H33" id="aW"/><use transform="matrix(0.05,0,0,0.05,0,0)" xlink:href="#aW" id="l"/><path fill="#333" d="M96-169c-40 0-48 33-48 73s9 75 48 75c24 0 41-14 43-38l32 2c-6 37-31 61-74 61-59 0-76-41-82-99-10-93 101-131 147-64 4 7 5 14 7 22l-32 3c-4-21-16-35-41-35" id="aX"/><path fill="#333" d="M106-169C34-169 62-67 57 0H25v-261h32l-1 103c12-21 28-36 61-36 89 0 53 116 60 194h-32v-121c2-32-8-49-39-48" id="aY"/><path fill="#333" d="M141-36C126-15 110 5 73 4 37 3 15-17 15-53c-1-64 63-63 125-63 3-35-9-54-41-54-24 1-41 7-42 31l-33-3c5-37 33-52 76-52 45 0 72 20 72 64v82c-1 20 7 32 28 27v20c-31 9-61-2-59-35zM48-53c0 20 12 33 32 33 41-3 63-29 60-74-43 2-92-5-92 41" id="aZ"/><path fill="#333" d="M24-231v-30h32v30H24zM24 0v-190h32V0H24" id="ba"/><path fill="#333" d="M100-194c63 0 86 42 84 106H49c0 40 14 67 53 68 26 1 43-12 49-29l28 8c-11 28-37 45-77 45C44 4 14-33 15-96c1-61 26-98 85-98zm52 81c6-60-76-77-97-28-3 7-6 17-6 28h103" id="bb"/><g id="m"><use transform="matrix(0.05,0,0,0.05,0,0)" xlink:href="#aX"/><use transform="matrix(0.05,0,0,0.05,9,0)" xlink:href="#aY"/><use transform="matrix(0.05,0,0,0.05,19,0)" xlink:href="#aZ"/><use transform="matrix(0.05,0,0,0.05,29,0)" xlink:href="#ba"/><use transform="matrix(0.05,0,0,0.05,32.95,0)" xlink:href="#aT"/><use transform="matrix(0.05,0,0,0.05,42.95,0)" xlink:href="#bb"/></g><path fill="#333" d="M115-194c55 1 70 41 70 98S169 2 115 4C84 4 66-9 55-30l1 105H24l-1-265h31l2 30c10-21 28-34 59-34zm-8 174c40 0 45-34 45-75s-6-73-45-74c-42 0-51 32-51 76 0 43 10 73 51 73" id="bc"/><path fill="#333" d="M114-163C36-179 61-72 57 0H25l-1-190h30c1 12-1 29 2 39 6-27 23-49 58-41v29" id="bd"/><g id="n"><use transform="matrix(0.05,0,0,0.05,0,0)" xlink:href="#bc"/><use transform="matrix(0.05,0,0,0.05,10,0)" xlink:href="#bd"/><use transform="matrix(0.05,0,0,0.05,15.949999999999998,0)" xlink:href="#bb"/><use transform="matrix(0.05,0,0,0.05,25.950000000000003,0)" xlink:href="#aT"/><use transform="matrix(0.05,0,0,0.05,35.95,0)" xlink:href="#aU"/><use transform="matrix(0.05,0,0,0.05,45.95,0)" xlink:href="#aV"/></g><path fill="#333" d="M24 0v-261h32V0H24" id="be"/><g id="o"><use transform="matrix(0.05,0,0,0.05,0,0)" xlink:href="#bb"/><use transform="matrix(0.05,0,0,0.05,10,0)" xlink:href="#aV"/><use transform="matrix(0.05,0,0,0.05,24.950000000000003,0)" xlink:href="#aZ"/><use transform="matrix(0.05,0,0,0.05,34.95,0)" xlink:href="#ba"/><use transform="matrix(0.05,0,0,0.05,38.900000000000006,0)" xlink:href="#be"/></g><path fill="#333" d="M85-194c31 0 48 13 60 33l-1-100h32l1 261h-30c-2-10 0-23-3-31C134-8 116 4 85 4 32 4 16-35 15-94c0-66 23-100 70-100zm9 24c-40 0-46 34-46 75 0 40 6 74 45 74 42 0 51-32 51-76 0-42-9-74-50-73" id="bf"/><path fill="#333" d="M59-47c-2 24 18 29 38 22v24C64 9 27 4 27-40v-127H5v-23h24l9-43h21v43h35v23H59v120" id="bg"/><path fill="#333" d="M30-248c87 1 191-15 191 75 0 78-77 80-158 76V0H30v-248zm33 125c57 0 124 11 124-50 0-59-68-47-124-48v98" id="bh"/><path fill="#333" d="M30 0v-248h187v28H63v79h144v27H63v87h162V0H30" id="bi"/><path fill="#333" d="M115-194c53 0 69 39 70 98 0 66-23 100-70 100C84 3 66-7 56-30L54 0H23l1-261h32v101c10-23 28-34 59-34zm-8 174c40 0 45-34 45-75 0-40-5-75-45-74-42 0-51 32-51 76 0 43 10 73 51 73" id="bj"/><path fill="#333" d="M84 4C-5 8 30-112 23-190h32v120c0 31 7 50 39 49 72-2 45-101 50-169h31l1 190h-30c-1-10 1-25-2-33-11 22-28 36-60 37" id="bk"/><g id="p"><use transform="matrix(0.05,0,0,0.05,0,0)" xlink:href="#bf"/><use transform="matrix(0.05,0,0,0.05,10,0)" xlink:href="#aZ"/><use transform="matrix(0.05,0,0,0.05,20,0)" xlink:href="#bg"/><use transform="matrix(0.05,0,0,0.05,25,0)" xlink:href="#bb"/><use transform="matrix(0.05,0,0,0.05,35,0)" xlink:href="#bh"/><use transform="matrix(0.05,0,0,0.05,47,0)" xlink:href="#bd"/><use transform="matrix(0.05,0,0,0.05,52.95,0)" xlink:href="#bb"/><use transform="matrix(0.05,0,0,0.05,62.95,0)" xlink:href="#aV"/><use transform="matrix(0.05,0,0,0.05,77.9,0)" xlink:href="#ba"/><use transform="matrix(0.05,0,0,0.05,81.85000000000001,0)" xlink:href="#bb"/><use transform="matrix(0.05,0,0,0.05,91.85000000000001,0)" xlink:href="#bd"/><use transform="matrix(0.05,0,0,0.05,97.80000000000001,0)" xlink:href="#bb"/><use transform="matrix(0.05,0,0,0.05,107.80000000000001,0)" xlink:href="#bi"/><use transform="matrix(0.05,0,0,0.05,119.80000000000001,0)" xlink:href="#aV"/><use transform="matrix(0.05,0,0,0.05,134.75,0)" xlink:href="#bj"/><use transform="matrix(0.05,0,0,0.05,144.75,0)" xlink:href="#aZ"/><use transform="matrix(0.05,0,0,0.05,154.75,0)" xlink:href="#bk"/><use transform="matrix(0.05,0,0,0.05,164.75,0)" xlink:href="#aX"/><use transform="matrix(0.05,0,0,0.05,173.75,0)" xlink:href="#aY"/><use transform="matrix(0.05,0,0,0.05,183.75,0)" xlink:href="#bb"/></g><g id="q"><use transform="matrix(0.05,0,0,0.05,0,0)" xlink:href="#bf"/><use transform="matrix(0.05,0,0,0.05,10,0)" xlink:href="#aZ"/><use transform="matrix(0.05,0,0,0.05,20,0)" xlink:href="#bg"/><use transform="matrix(0.05,0,0,0.05,25,0)" xlink:href="#bb"/></g><path fill="#333" d="M135-143c-3-34-86-38-87 0 15 53 115 12 119 90S17 21 10-45l28-5c4 36 97 45 98 0-10-56-113-15-118-90-4-57 82-63 122-42 12 7 21 19 24 35" id="bl"/><path fill="#333" d="M206 0h-36l-40-164L89 0H53L-1-190h32L70-26l43-164h34l41 164 42-164h31" id="bm"/><g id="r"><use transform="matrix(0.05,0,0,0.05,0,0)" xlink:href="#bc"/><use transform="matrix(0.05,0,0,0.05,10,0)" xlink:href="#aZ"/><use transform="matrix(0.05,0,0,0.05,20,0)" xlink:href="#bl"/><use transform="matrix(0.05,0,0,0.05,29,0)" xlink:href="#bl"/><use transform="matrix(0.05,0,0,0.05,38,0)" xlink:href="#bm"/><use transform="matrix(0.05,0,0,0.05,50.95,0)" xlink:href="#aU"/><use transform="matrix(0.05,0,0,0.05,60.95,0)" xlink:href="#bd"/><use transform="matrix(0.05,0,0,0.05,66.9,0)" xlink:href="#bf"/></g><g id="s"><use transform="matrix(0.05,0,0,0.05,0,0)" xlink:href="#aX"/><use transform="matrix(0.05,0,0,0.05,9,0)" xlink:href="#aY"/><use transform="matrix(0.05,0,0,0.05,19,0)" xlink:href="#aZ"/><use transform="matrix(0.05,0,0,0.05,29,0)" xlink:href="#ba"/><use transform="matrix(0.05,0,0,0.05,32.95,0)" xlink:href="#aT"/><use transform="matrix(0.05,0,0,0.05,42.95,0)" xlink:href="#bb"/></g><path fill="#333" d="M118-107v75H92v-75H18v-26h74v-75h26v75h74v26h-74" id="bn"/><use transform="matrix(0.05,0,0,0.05,0,0)" xlink:href="#bn" id="t"/><path fill="#333" d="M101-234c-31-9-42 10-38 44h38v23H63V0H32v-167H5v-23h27c-7-52 17-82 69-68v24" id="bo"/><path fill="#333" d="M30 0v-248h33v221h125V0H30" id="bp"/><path fill="#333" d="M212-179c-10-28-35-45-73-45-59 0-87 40-87 99 0 60 29 101 89 101 43 0 62-24 78-52l27 14C228-24 195 4 139 4 59 4 22-46 18-125c-6-104 99-153 187-111 19 9 31 26 39 46" id="bq"/><path fill="#333" d="M87 75C49 33 22-17 22-94c0-76 28-126 65-167h31c-38 41-64 92-64 168S80 34 118 75H87" id="br"/><path fill="#333" d="M33-261c38 41 65 92 65 168S71 34 33 75H2C39 34 66-17 66-93S39-220 2-261h31" id="bs"/><g id="u"><use transform="matrix(0.05,0,0,0.05,0,0)" xlink:href="#aZ"/><use transform="matrix(0.05,0,0,0.05,10,0)" xlink:href="#bo"/><use transform="matrix(0.05,0,0,0.05,14.65,0)" xlink:href="#bo"/><use transform="matrix(0.05,0,0,0.05,19.65,0)" xlink:href="#ba"/><use transform="matrix(0.05,0,0,0.05,23.599999999999998,0)" xlink:href="#aX"/><use transform="matrix(0.05,0,0,0.05,32.599999999999994,0)" xlink:href="#aY"/><use transform="matrix(0.05,0,0,0.05,42.599999999999994,0)" xlink:href="#bb"/><use transform="matrix(0.05,0,0,0.05,52.599999999999994,0)" xlink:href="#bd"/><use transform="matrix(0.05,0,0,0.05,58.54999999999999,0)" xlink:href="#bp"/><use transform="matrix(0.05,0,0,0.05,68.55,0)" xlink:href="#ba"/><use transform="matrix(0.05,0,0,0.05,72.5,0)" xlink:href="#bl"/><use transform="matrix(0.05,0,0,0.05,81.5,0)" xlink:href="#bg"/><use transform="matrix(0.05,0,0,0.05,86.5,0)" xlink:href="#bb"/><use transform="matrix(0.05,0,0,0.05,96.5,0)" xlink:href="#bq"/><use transform="matrix(0.05,0,0,0.05,109.45,0)" xlink:href="#aU"/><use transform="matrix(0.05,0,0,0.05,119.45,0)" xlink:href="#be"/><use transform="matrix(0.05,0,0,0.05,123.4,0)" xlink:href="#be"/><use transform="matrix(0.05,0,0,0.05,127.35000000000001,0)" xlink:href="#aZ"/><use transform="matrix(0.05,0,0,0.05,137.35000000000002,0)" xlink:href="#bj"/><use transform="matrix(0.05,0,0,0.05,147.35000000000002,0)" xlink:href="#aU"/><use transform="matrix(0.05,0,0,0.05,157.35000000000002,0)" xlink:href="#bd"/><use transform="matrix(0.05,0,0,0.05,163.3,0)" xlink:href="#aZ"/><use transform="matrix(0.05,0,0,0.05,173.3,0)" xlink:href="#bg"/><use transform="matrix(0.05,0,0,0.05,178.3,0)" xlink:href="#bb"/><use transform="matrix(0.05,0,0,0.05,188.3,0)" xlink:href="#bk"/><use transform="matrix(0.05,0,0,0.05,198.3,0)" xlink:href="#bd"/><use transform="matrix(0.05,0,0,0.05,204.25,0)" xlink:href="#br"/><use transform="matrix(0.05,0,0,0.05,210.19999999999996,0)" xlink:href="#bs"/></g><g id="v"><use transform="matrix(0.05,0,0,0.05,0,0)" xlink:href="#bd"/><use transform="matrix(0.05,0,0,0.05,5.95,0)" xlink:href="#bb"/><use transform="matrix(0.05,0,0,0.05,15.949999999999998,0)" xlink:href="#aX"/><use transform="matrix(0.05,0,0,0.05,24.95,0)" xlink:href="#aY"/><use transform="matrix(0.05,0,0,0.05,34.95,0)" xlink:href="#bb"/><use transform="matrix(0.05,0,0,0.05,44.95,0)" xlink:href="#bd"/><use transform="matrix(0.05,0,0,0.05,50.900000000000006,0)" xlink:href="#aX"/><use transform="matrix(0.05,0,0,0.05,59.900000000000006,0)" xlink:href="#aY"/><use transform="matrix(0.05,0,0,0.05,69.9,0)" xlink:href="#bb"/><use transform="matrix(0.05,0,0,0.05,79.9,0)" xlink:href="#bd"/><use transform="matrix(0.05,0,0,0.05,85.85000000000001,0)" xlink:href="#bq"/><use transform="matrix(0.05,0,0,0.05,98.80000000000001,0)" xlink:href="#aU"/><use transform="matrix(0.05,0,0,0.05,108.80000000000001,0)" xlink:href="#be"/><use transform="matrix(0.05,0,0,0.05,112.75,0)" xlink:href="#be"/><use transform="matrix(0.05,0,0,0.05,116.7,0)" xlink:href="#aZ"/><use transform="matrix(0.05,0,0,0.05,126.7,0)" xlink:href="#bj"/><use transform="matrix(0.05,0,0,0.05,136.70000000000002,0)" xlink:href="#aU"/><use transform="matrix(0.05,0,0,0.05,146.70000000000002,0)" xlink:href="#bd"/><use transform="matrix(0.05,0,0,0.05,152.65,0)" xlink:href="#aZ"/><use transform="matrix(0.05,0,0,0.05,162.65,0)" xlink:href="#bg"/><use transform="matrix(0.05,0,0,0.05,167.65,0)" xlink:href="#bb"/><use transform="matrix(0.05,0,0,0.05,177.65,0)" xlink:href="#bk"/><use transform="matrix(0.05,0,0,0.05,187.65,0)" xlink:href="#bd"/><use transform="matrix(0.05,0,0,0.05,193.6,0)" xlink:href="#br"/><use transform="matrix(0.05,0,0,0.05,199.54999999999998,0)" xlink:href="#bs"/></g><g id="w"><use transform="matrix(0.05,0,0,0.05,0,0)" xlink:href="#bo"/><use transform="matrix(0.05,0,0,0.05,5,0)" xlink:href="#ba"/><use transform="matrix(0.05,0,0,0.05,8.95,0)" xlink:href="#be"/><use transform="matrix(0.05,0,0,0.05,12.899999999999999,0)" xlink:href="#bg"/><use transform="matrix(0.05,0,0,0.05,17.9,0)" xlink:href="#bd"/><use transform="matrix(0.05,0,0,0.05,23.849999999999998,0)" xlink:href="#bb"/><use transform="matrix(0.05,0,0,0.05,33.849999999999994,0)" xlink:href="#bd"/><use transform="matrix(0.05,0,0,0.05,39.8,0)" xlink:href="#bp"/><use transform="matrix(0.05,0,0,0.05,49.8,0)" xlink:href="#ba"/><use transform="matrix(0.05,0,0,0.05,53.75,0)" xlink:href="#bl"/><use transform="matrix(0.05,0,0,0.05,62.75,0)" xlink:href="#bg"/><use transform="matrix(0.05,0,0,0.05,67.75,0)" xlink:href="#bb"/><use transform="matrix(0.05,0,0,0.05,77.75,0)" xlink:href="#bq"/><use transform="matrix(0.05,0,0,0.05,90.7,0)" xlink:href="#aU"/><use transform="matrix(0.05,0,0,0.05,100.7,0)" xlink:href="#be"/><use transform="matrix(0.05,0,0,0.05,104.65,0)" xlink:href="#be"/><use transform="matrix(0.05,0,0,0.05,108.60000000000001,0)" xlink:href="#aZ"/><use transform="matrix(0.05,0,0,0.05,118.60000000000001,0)" xlink:href="#bj"/><use transform="matrix(0.05,0,0,0.05,128.60000000000002,0)" xlink:href="#aU"/><use transform="matrix(0.05,0,0,0.05,138.60000000000002,0)" xlink:href="#bd"/><use transform="matrix(0.05,0,0,0.05,144.55,0)" xlink:href="#aZ"/><use transform="matrix(0.05,0,0,0.05,154.55,0)" xlink:href="#bg"/><use transform="matrix(0.05,0,0,0.05,159.55,0)" xlink:href="#bb"/><use transform="matrix(0.05,0,0,0.05,169.55,0)" xlink:href="#bk"/><use transform="matrix(0.05,0,0,0.05,179.55,0)" xlink:href="#bd"/><use transform="matrix(0.05,0,0,0.05,185.5,0)" xlink:href="#br"/><use transform="matrix(0.05,0,0,0.05,191.45,0)" xlink:href="#bs"/></g><path fill="#333" d="M24-231v-30h32v30H24zM-9 49c24 4 33-6 33-30v-209h32V24c2 40-23 58-65 49V49" id="bt"/><path fill="#333" d="M190 0L58-211 59 0H30v-248h39L202-35l-2-213h31V0h-41" id="bu"/><path fill="#333" d="M108 0H70L1-190h34L89-25l56-165h34" id="bv"/><g id="x"><use transform="matrix(0.05,0,0,0.05,0,0)" xlink:href="#aZ"/><use transform="matrix(0.05,0,0,0.05,10,0)" xlink:href="#bt"/><use transform="matrix(0.05,0,0,0.05,13.949999999999998,0)" xlink:href="#aU"/><use transform="matrix(0.05,0,0,0.05,23.95,0)" xlink:href="#bk"/><use transform="matrix(0.05,0,0,0.05,33.95,0)" xlink:href="#bg"/><use transform="matrix(0.05,0,0,0.05,38.95,0)" xlink:href="#bb"/><use transform="matrix(0.05,0,0,0.05,48.95,0)" xlink:href="#bd"/><use transform="matrix(0.05,0,0,0.05,54.900000000000006,0)" xlink:href="#bu"/><use transform="matrix(0.05,0,0,0.05,67.85000000000001,0)" xlink:href="#aU"/><use transform="matrix(0.05,0,0,0.05,77.85000000000001,0)" xlink:href="#bk"/><use transform="matrix(0.05,0,0,0.05,87.85000000000001,0)" xlink:href="#bv"/><use transform="matrix(0.05,0,0,0.05,96.85000000000001,0)" xlink:href="#bb"/><use transform="matrix(0.05,0,0,0.05,106.85000000000001,0)" xlink:href="#aZ"/><use transform="matrix(0.05,0,0,0.05,116.85000000000001,0)" xlink:href="#bk"/><use transform="matrix(0.05,0,0,0.05,126.85000000000001,0)" xlink:href="#bq"/><use transform="matrix(0.05,0,0,0.05,139.8,0)" xlink:href="#aU"/><use transform="matrix(0.05,0,0,0.05,149.8,0)" xlink:href="#be"/><use transform="matrix(0.05,0,0,0.05,153.75,0)" xlink:href="#be"/><use transform="matrix(0.05,0,0,0.05,157.7,0)" xlink:href="#aZ"/><use transform="matrix(0.05,0,0,0.05,167.7,0)" xlink:href="#bj"/><use transform="matrix(0.05,0,0,0.05,177.7,0)" xlink:href="#aU"/><use transform="matrix(0.05,0,0,0.05,187.7,0)" xlink:href="#bd"/><use transform="matrix(0.05,0,0,0.05,193.64999999999998,0)" xlink:href="#aZ"/><use transform="matrix(0.05,0,0,0.05,203.64999999999998,0)" xlink:href="#bg"/><use transform="matrix(0.05,0,0,0.05,208.64999999999998,0)" xlink:href="#bb"/><use transform="matrix(0.05,0,0,0.05,218.64999999999998,0)" xlink:href="#bk"/><use transform="matrix(0.05,0,0,0.05,228.64999999999998,0)" xlink:href="#bd"/><use transform="matrix(0.05,0,0,0.05,234.59999999999997,0)" xlink:href="#br"/><use transform="matrix(0.05,0,0,0.05,240.54999999999995,0)" xlink:href="#bs"/></g><path fill="#333" d="M205 0l-28-72H64L36 0H1l101-248h38L239 0h-34zm-38-99l-47-123c-12 45-31 82-46 123h93" id="bw"/><g id="y"><use transform="matrix(0.05,0,0,0.05,0,0)" xlink:href="#aZ"/><use transform="matrix(0.05,0,0,0.05,10,0)" xlink:href="#bo"/><use transform="matrix(0.05,0,0,0.05,14.65,0)" xlink:href="#bo"/><use transform="matrix(0.05,0,0,0.05,19.65,0)" xlink:href="#ba"/><use transform="matrix(0.05,0,0,0.05,23.599999999999998,0)" xlink:href="#aX"/><use transform="matrix(0.05,0,0,0.05,32.599999999999994,0)" xlink:href="#aY"/><use transform="matrix(0.05,0,0,0.05,42.599999999999994,0)" xlink:href="#bb"/><use transform="matrix(0.05,0,0,0.05,52.599999999999994,0)" xlink:href="#bd"/><use transform="matrix(0.05,0,0,0.05,58.54999999999999,0)" xlink:href="#bq"/><use transform="matrix(0.05,0,0,0.05,71.5,0)" xlink:href="#aU"/><use transform="matrix(0.05,0,0,0.05,81.5,0)" xlink:href="#be"/><use transform="matrix(0.05,0,0,0.05,85.45,0)" xlink:href="#be"/><use transform="matrix(0.05,0,0,0.05,89.4,0)" xlink:href="#aZ"/><use transform="matrix(0.05,0,0,0.05,99.4,0)" xlink:href="#bj"/><use transform="matrix(0.05,0,0,0.05,109.4,0)" xlink:href="#aU"/><use transform="matrix(0.05,0,0,0.05,119.4,0)" xlink:href="#bd"/><use transform="matrix(0.05,0,0,0.05,125.35000000000001,0)" xlink:href="#aZ"/><use transform="matrix(0.05,0,0,0.05,135.35000000000002,0)" xlink:href="#bg"/><use transform="matrix(0.05,0,0,0.05,140.35000000000002,0)" xlink:href="#bb"/><use transform="matrix(0.05,0,0,0.05,150.35000000000002,0)" xlink:href="#bk"/><use transform="matrix(0.05,0,0,0.05,160.35000000000002,0)" xlink:href="#bd"/><use transform="matrix(0.05,0,0,0.05,166.3,0)" xlink:href="#bu"/><use transform="matrix(0.05,0,0,0.05,179.25,0)" xlink:href="#aU"/><use transform="matrix(0.05,0,0,0.05,189.25,0)" xlink:href="#aT"/><use transform="matrix(0.05,0,0,0.05,199.25,0)" xlink:href="#bw"/><use transform="matrix(0.05,0,0,0.05,211.25,0)" xlink:href="#bo"/><use transform="matrix(0.05,0,0,0.05,215.9,0)" xlink:href="#bo"/><use transform="matrix(0.05,0,0,0.05,220.9,0)" xlink:href="#bb"/><use transform="matrix(0.05,0,0,0.05,230.9,0)" xlink:href="#aX"/><use transform="matrix(0.05,0,0,0.05,239.9,0)" xlink:href="#bg"/><use transform="matrix(0.05,0,0,0.05,244.9,0)" xlink:href="#bb"/><use transform="matrix(0.05,0,0,0.05,254.9,0)" xlink:href="#br"/><use transform="matrix(0.05,0,0,0.05,260.85,0)" xlink:href="#bs"/></g><path fill="#333" d="M30-248c118-7 216 8 213 122C240-48 200 0 122 0H30v-248zM63-27c89 8 146-16 146-99s-60-101-146-95v194" id="bx"/><g id="z"><use transform="matrix(0.05,0,0,0.05,0,0)" xlink:href="#aZ"/><use transform="matrix(0.05,0,0,0.05,10,0)" xlink:href="#bo"/><use transform="matrix(0.05,0,0,0.05,14.65,0)" xlink:href="#bo"/><use transform="matrix(0.05,0,0,0.05,19.65,0)" xlink:href="#ba"/><use transform="matrix(0.05,0,0,0.05,23.599999999999998,0)" xlink:href="#aX"/><use transform="matrix(0.05,0,0,0.05,32.599999999999994,0)" xlink:href="#aY"/><use transform="matrix(0.05,0,0,0.05,42.599999999999994,0)" xlink:href="#bb"/><use transform="matrix(0.05,0,0,0.05,52.599999999999994,0)" xlink:href="#bd"/><use transform="matrix(0.05,0,0,0.05,58.54999999999999,0)" xlink:href="#bx"/><use transform="matrix(0.05,0,0,0.05,71.5,0)" xlink:href="#bb"/><use transform="matrix(0.05,0,0,0.05,81.5,0)" xlink:href="#bg"/><use transform="matrix(0.05,0,0,0.05,86.5,0)" xlink:href="#aZ"/><use transform="matrix(0.05,0,0,0.05,96.5,0)" xlink:href="#ba"/><use transform="matrix(0.05,0,0,0.05,100.45,0)" xlink:href="#be"/><use transform="matrix(0.05,0,0,0.05,104.4,0)" xlink:href="#bl"/><use transform="matrix(0.05,0,0,0.05,113.4,0)" xlink:href="#bq"/><use transform="matrix(0.05,0,0,0.05,126.35000000000001,0)" xlink:href="#aU"/><use transform="matrix(0.05,0,0,0.05,136.35000000000002,0)" xlink:href="#be"/><use transform="matrix(0.05,0,0,0.05,140.3,0)" xlink:href="#be"/><use transform="matrix(0.05,0,0,0.05,144.25,0)" xlink:href="#aZ"/><use transform="matrix(0.05,0,0,0.05,154.25,0)" xlink:href="#bj"/><use transform="matrix(0.05,0,0,0.05,164.25,0)" xlink:href="#aU"/><use transform="matrix(0.05,0,0,0.05,174.25,0)" xlink:href="#bd"/><use transform="matrix(0.05,0,0,0.05,180.2,0)" xlink:href="#aZ"/><use transform="matrix(0.05,0,0,0.05,190.2,0)" xlink:href="#bg"/><use transform="matrix(0.05,0,0,0.05,195.2,0)" xlink:href="#bb"/><use transform="matrix(0.05,0,0,0.05,205.19999999999996,0)" xlink:href="#bk"/><use transform="matrix(0.05,0,0,0.05,215.19999999999996,0)" xlink:href="#bd"/><use transform="matrix(0.05,0,0,0.05,221.14999999999998,0)" xlink:href="#br"/><use transform="matrix(0.05,0,0,0.05,227.09999999999997,0)" xlink:href="#bs"/></g><g id="A"><use transform="matrix(0.05,0,0,0.05,0,0)" xlink:href="#bo"/><use transform="matrix(0.05,0,0,0.05,5,0)" xlink:href="#ba"/><use transform="matrix(0.05,0,0,0.05,8.95,0)" xlink:href="#be"/><use transform="matrix(0.05,0,0,0.05,12.899999999999999,0)" xlink:href="#bg"/><use transform="matrix(0.05,0,0,0.05,17.9,0)" xlink:href="#bd"/><use transform="matrix(0.05,0,0,0.05,23.849999999999998,0)" xlink:href="#bb"/><use transform="matrix(0.05,0,0,0.05,33.849999999999994,0)" xlink:href="#bd"/><use transform="matrix(0.05,0,0,0.05,39.8,0)" xlink:href="#bp"/><use transform="matrix(0.05,0,0,0.05,49.8,0)" xlink:href="#ba"/><use transform="matrix(0.05,0,0,0.05,53.75,0)" xlink:href="#bl"/><use transform="matrix(0.05,0,0,0.05,62.75,0)" xlink:href="#bg"/><use transform="matrix(0.05,0,0,0.05,67.75,0)" xlink:href="#bb"/><use transform="matrix(0.05,0,0,0.05,77.75,0)" xlink:href="#bw"/><use transform="matrix(0.05,0,0,0.05,89.75,0)" xlink:href="#bo"/><use transform="matrix(0.05,0,0,0.05,94.4,0)" xlink:href="#bo"/><use transform="matrix(0.05,0,0,0.05,99.4,0)" xlink:href="#bb"/><use transform="matrix(0.05,0,0,0.05,109.4,0)" xlink:href="#aX"/><use transform="matrix(0.05,0,0,0.05,118.4,0)" xlink:href="#bg"/><use transform="matrix(0.05,0,0,0.05,123.4,0)" xlink:href="#aZ"/><use transform="matrix(0.05,0,0,0.05,133.4,0)" xlink:href="#bg"/><use transform="matrix(0.05,0,0,0.05,138.4,0)" xlink:href="#ba"/><use transform="matrix(0.05,0,0,0.05,142.35,0)" xlink:href="#aU"/><use transform="matrix(0.05,0,0,0.05,152.35,0)" xlink:href="#aT"/><use transform="matrix(0.05,0,0,0.05,162.35,0)" xlink:href="#bq"/><use transform="matrix(0.05,0,0,0.05,175.29999999999998,0)" xlink:href="#aU"/><use transform="matrix(0.05,0,0,0.05,185.29999999999998,0)" xlink:href="#be"/><use transform="matrix(0.05,0,0,0.05,189.24999999999997,0)" xlink:href="#be"/><use transform="matrix(0.05,0,0,0.05,193.19999999999996,0)" xlink:href="#aZ"/><use transform="matrix(0.05,0,0,0.05,203.19999999999996,0)" xlink:href="#bj"/><use transform="matrix(0.05,0,0,0.05,213.19999999999996,0)" xlink:href="#aU"/><use transform="matrix(0.05,0,0,0.05,223.19999999999996,0)" xlink:href="#bd"/><use transform="matrix(0.05,0,0,0.05,229.14999999999998,0)" xlink:href="#aZ"/><use transform="matrix(0.05,0,0,0.05,239.14999999999998,0)" xlink:href="#bg"/><use transform="matrix(0.05,0,0,0.05,244.14999999999998,0)" xlink:href="#bb"/><use transform="matrix(0.05,0,0,0.05,254.14999999999998,0)" xlink:href="#bk"/><use transform="matrix(0.05,0,0,0.05,264.15,0)" xlink:href="#bd"/><use transform="matrix(0.05,0,0,0.05,270.09999999999997,0)" xlink:href="#br"/><use transform="matrix(0.05,0,0,0.05,276.04999999999995,0)" xlink:href="#bs"/></g><g id="B"><use transform="matrix(0.05,0,0,0.05,0,0)" xlink:href="#bb"/><use transform="matrix(0.05,0,0,0.05,10,0)" xlink:href="#bf"/><use transform="matrix(0.05,0,0,0.05,20,0)" xlink:href="#ba"/><use transform="matrix(0.05,0,0,0.05,23.95,0)" xlink:href="#bg"/><use transform="matrix(0.05,0,0,0.05,28.950000000000003,0)" xlink:href="#bb"/><use transform="matrix(0.05,0,0,0.05,38.95,0)" xlink:href="#bd"/><use transform="matrix(0.05,0,0,0.05,44.900000000000006,0)" xlink:href="#bh"/><use transform="matrix(0.05,0,0,0.05,56.900000000000006,0)" xlink:href="#aU"/><use transform="matrix(0.05,0,0,0.05,66.9,0)" xlink:href="#bl"/><use transform="matrix(0.05,0,0,0.05,75.9,0)" xlink:href="#bg"/><use transform="matrix(0.05,0,0,0.05,80.9,0)" xlink:href="#bb"/><use transform="matrix(0.05,0,0,0.05,90.9,0)" xlink:href="#bq"/><use transform="matrix(0.05,0,0,0.05,103.85000000000001,0)" xlink:href="#aU"/><use transform="matrix(0.05,0,0,0.05,113.85000000000001,0)" xlink:href="#be"/><use transform="matrix(0.05,0,0,0.05,117.80000000000001,0)" xlink:href="#be"/><use transform="matrix(0.05,0,0,0.05,121.75,0)" xlink:href="#aZ"/><use transform="matrix(0.05,0,0,0.05,131.75,0)" xlink:href="#bj"/><use transform="matrix(0.05,0,0,0.05,141.75,0)" xlink:href="#aU"/><use transform="matrix(0.05,0,0,0.05,151.75,0)" xlink:href="#bd"/><use transform="matrix(0.05,0,0,0.05,157.7,0)" xlink:href="#aZ"/><use transform="matrix(0.05,0,0,0.05,167.7,0)" xlink:href="#bg"/><use transform="matrix(0.05,0,0,0.05,172.7,0)" xlink:href="#bb"/><use transform="matrix(0.05,0,0,0.05,182.7,0)" xlink:href="#bk"/><use transform="matrix(0.05,0,0,0.05,192.7,0)" xlink:href="#bd"/><use transform="matrix(0.05,0,0,0.05,198.64999999999998,0)" xlink:href="#br"/><use transform="matrix(0.05,0,0,0.05,204.59999999999997,0)" xlink:href="#bs"/></g><g id="C"><use transform="matrix(0.05,0,0,0.05,0,0)" xlink:href="#bb"/><use transform="matrix(0.05,0,0,0.05,10,0)" xlink:href="#bf"/><use transform="matrix(0.05,0,0,0.05,20,0)" xlink:href="#ba"/><use transform="matrix(0.05,0,0,0.05,23.95,0)" xlink:href="#bg"/><use transform="matrix(0.05,0,0,0.05,28.950000000000003,0)" xlink:href="#bb"/><use transform="matrix(0.05,0,0,0.05,38.95,0)" xlink:href="#bd"/><use transform="matrix(0.05,0,0,0.05,44.900000000000006,0)" xlink:href="#bw"/><use transform="matrix(0.05,0,0,0.05,56.900000000000006,0)" xlink:href="#bo"/><use transform="matrix(0.05,0,0,0.05,61.550000000000004,0)" xlink:href="#bo"/><use transform="matrix(0.05,0,0,0.05,66.55000000000001,0)" xlink:href="#bb"/><use transform="matrix(0.05,0,0,0.05,76.55000000000001,0)" xlink:href="#aX"/><use transform="matrix(0.05,0,0,0.05,85.55000000000001,0)" xlink:href="#bg"/><use transform="matrix(0.05,0,0,0.05,90.55000000000001,0)" xlink:href="#aZ"/><use transform="matrix(0.05,0,0,0.05,100.55000000000001,0)" xlink:href="#bg"/><use transform="matrix(0.05,0,0,0.05,105.55000000000001,0)" xlink:href="#ba"/><use transform="matrix(0.05,0,0,0.05,109.5,0)" xlink:href="#aU"/><use transform="matrix(0.05,0,0,0.05,119.5,0)" xlink:href="#aT"/><use transform="matrix(0.05,0,0,0.05,129.5,0)" xlink:href="#bw"/><use transform="matrix(0.05,0,0,0.05,141.5,0)" xlink:href="#aX"/><use transform="matrix(0.05,0,0,0.05,150.5,0)" xlink:href="#bg"/><use transform="matrix(0.05,0,0,0.05,155.5,0)" xlink:href="#bk"/><use transform="matrix(0.05,0,0,0.05,165.5,0)" xlink:href="#bb"/><use transform="matrix(0.05,0,0,0.05,175.5,0)" xlink:href="#be"/><use transform="matrix(0.05,0,0,0.05,179.45,0)" xlink:href="#be"/><use transform="matrix(0.05,0,0,0.05,183.39999999999998,0)" xlink:href="#bb"/><use transform="matrix(0.05,0,0,0.05,193.39999999999998,0)" xlink:href="#br"/><use transform="matrix(0.05,0,0,0.05,199.34999999999997,0)" xlink:href="#bs"/></g><path fill="#333" d="M240-174c0 40-23 61-54 70L253 0h-59l-57-94H76V0H24v-248c93 4 217-23 216 74zM76-134c48-2 112 12 112-38 0-48-66-32-112-35v73" id="by"/><path fill="#333" d="M115-3C79 11 28 4 28-45v-112H4v-33h27l15-45h31v45h36v33H77v99c-1 23 16 31 38 25v30" id="bz"/><path fill="#333" d="M133-34C117-15 103 5 69 4 32 3 11-16 11-54c-1-60 55-63 116-61 1-26-3-47-28-47-18 1-26 9-28 27l-52-2c7-38 36-58 82-57s74 22 75 68l1 82c-1 14 12 18 25 15v27c-30 8-71 5-69-32zm-48 3c29 0 43-24 42-57-32 0-66-3-65 30 0 17 8 27 23 27" id="bA"/><path fill="#333" d="M85 4C-2 5 27-109 22-190h50c7 57-23 150 33 157 60-5 35-97 40-157h50l1 190h-47c-2-12 1-28-3-38-12 25-28 42-61 42" id="bB"/><path fill="#333" d="M135-194c87-1 58 113 63 194h-50c-7-57 23-157-34-157-59 0-34 97-39 157H25l-1-190h47c2 12-1 28 3 38 12-26 28-41 61-42" id="bC"/><g id="D"><use transform="matrix(0.05,0,0,0.05,0,0)" xlink:href="#by"/><use transform="matrix(0.05,0,0,0.05,12.950000000000001,0)" xlink:href="#aQ"/><use transform="matrix(0.05,0,0,0.05,22.950000000000003,0)" xlink:href="#aP"/><use transform="matrix(0.05,0,0,0.05,32.95,0)" xlink:href="#bz"/><use transform="matrix(0.05,0,0,0.05,38.900000000000006,0)" xlink:href="#bA"/><use transform="matrix(0.05,0,0,0.05,48.900000000000006,0)" xlink:href="#bB"/><use transform="matrix(0.05,0,0,0.05,59.85,0)" xlink:href="#aR"/><use transform="matrix(0.05,0,0,0.05,66.85000000000001,0)" xlink:href="#bA"/><use transform="matrix(0.05,0,0,0.05,76.85000000000001,0)" xlink:href="#bC"/><use transform="matrix(0.05,0,0,0.05,87.80000000000001,0)" xlink:href="#bz"/><use transform="matrix(0.05,0,0,0.05,93.75000000000001,0)" xlink:href="#aP"/></g><g id="E"><use transform="matrix(0.05,0,0,0.05,0,0)" xlink:href="#aZ"/><use transform="matrix(0.05,0,0,0.05,10,0)" xlink:href="#bf"/><use transform="matrix(0.05,0,0,0.05,20,0)" xlink:href="#bd"/><use transform="matrix(0.05,0,0,0.05,25.950000000000003,0)" xlink:href="#bb"/><use transform="matrix(0.05,0,0,0.05,35.95,0)" xlink:href="#bl"/><use transform="matrix(0.05,0,0,0.05,44.95,0)" xlink:href="#bl"/><use transform="matrix(0.05,0,0,0.05,53.95,0)" xlink:href="#bb"/></g><g id="F"><use transform="matrix(0.05,0,0,0.05,0,0)" xlink:href="#aX"/><use transform="matrix(0.05,0,0,0.05,9,0)" xlink:href="#aU"/><use transform="matrix(0.05,0,0,0.05,19,0)" xlink:href="#bf"/><use transform="matrix(0.05,0,0,0.05,29,0)" xlink:href="#bb"/><use transform="matrix(0.05,0,0,0.05,39,0)" xlink:href="#bh"/><use transform="matrix(0.05,0,0,0.05,51,0)" xlink:href="#aU"/><use transform="matrix(0.05,0,0,0.05,61,0)" xlink:href="#bl"/><use transform="matrix(0.05,0,0,0.05,70,0)" xlink:href="#bg"/><use transform="matrix(0.05,0,0,0.05,75,0)" xlink:href="#aZ"/><use transform="matrix(0.05,0,0,0.05,85,0)" xlink:href="#be"/></g><g id="G"><use transform="matrix(0.05,0,0,0.05,0,0)" xlink:href="#bv"/><use transform="matrix(0.05,0,0,0.05,9,0)" xlink:href="#ba"/><use transform="matrix(0.05,0,0,0.05,12.949999999999998,0)" xlink:href="#be"/><use transform="matrix(0.05,0,0,0.05,16.9,0)" xlink:href="#be"/><use transform="matrix(0.05,0,0,0.05,20.849999999999998,0)" xlink:href="#bb"/></g><path fill="#333" d="M233-177c-1 41-23 64-60 70L243 0h-38l-65-103H63V0H30v-248c88 3 205-21 203 71zM63-129c60-2 137 13 137-47 0-61-80-42-137-45v92" id="bD"/><g id="H"><use transform="matrix(0.05,0,0,0.05,0,0)" xlink:href="#aZ"/><use transform="matrix(0.05,0,0,0.05,10,0)" xlink:href="#bo"/><use transform="matrix(0.05,0,0,0.05,14.65,0)" xlink:href="#bo"/><use transform="matrix(0.05,0,0,0.05,19.65,0)" xlink:href="#ba"/><use transform="matrix(0.05,0,0,0.05,23.599999999999998,0)" xlink:href="#aX"/><use transform="matrix(0.05,0,0,0.05,32.599999999999994,0)" xlink:href="#aY"/><use transform="matrix(0.05,0,0,0.05,42.599999999999994,0)" xlink:href="#bb"/><use transform="matrix(0.05,0,0,0.05,52.599999999999994,0)" xlink:href="#bd"/><use transform="matrix(0.05,0,0,0.05,58.54999999999999,0)" xlink:href="#bp"/><use transform="matrix(0.05,0,0,0.05,68.55,0)" xlink:href="#ba"/><use transform="matrix(0.05,0,0,0.05,72.5,0)" xlink:href="#bl"/><use transform="matrix(0.05,0,0,0.05,81.5,0)" xlink:href="#bg"/><use transform="matrix(0.05,0,0,0.05,86.5,0)" xlink:href="#bb"/><use transform="matrix(0.05,0,0,0.05,96.5,0)" xlink:href="#bD"/><use transform="matrix(0.05,0,0,0.05,109.45,0)" xlink:href="#bb"/><use transform="matrix(0.05,0,0,0.05,119.45,0)" xlink:href="#bl"/><use transform="matrix(0.05,0,0,0.05,128.45,0)" xlink:href="#bg"/><use transform="matrix(0.05,0,0,0.05,133.45,0)" xlink:href="#aZ"/><use transform="matrix(0.05,0,0,0.05,143.45,0)" xlink:href="#bk"/><use transform="matrix(0.05,0,0,0.05,153.45,0)" xlink:href="#bd"/><use transform="matrix(0.05,0,0,0.05,159.39999999999998,0)" xlink:href="#aZ"/><use transform="matrix(0.05,0,0,0.05,169.39999999999998,0)" xlink:href="#aT"/><use transform="matrix(0.05,0,0,0.05,179.39999999999998,0)" xlink:href="#bg"/><use transform="matrix(0.05,0,0,0.05,184.39999999999998,0)" xlink:href="#br"/><use transform="matrix(0.05,0,0,0.05,190.34999999999997,0)" xlink:href="#bs"/></g><g id="I"><use transform="matrix(0.05,0,0,0.05,0,0)" xlink:href="#bd"/><use transform="matrix(0.05,0,0,0.05,5.95,0)" xlink:href="#bb"/><use transform="matrix(0.05,0,0,0.05,15.949999999999998,0)" xlink:href="#aX"/><use transform="matrix(0.05,0,0,0.05,24.95,0)" xlink:href="#aY"/><use transform="matrix(0.05,0,0,0.05,34.95,0)" xlink:href="#bb"/><use transform="matrix(0.05,0,0,0.05,44.95,0)" xlink:href="#bd"/><use transform="matrix(0.05,0,0,0.05,50.900000000000006,0)" xlink:href="#aX"/><use transform="matrix(0.05,0,0,0.05,59.900000000000006,0)" xlink:href="#aY"/><use transform="matrix(0.05,0,0,0.05,69.9,0)" xlink:href="#bb"/><use transform="matrix(0.05,0,0,0.05,79.9,0)" xlink:href="#bd"/><use transform="matrix(0.05,0,0,0.05,85.85000000000001,0)" xlink:href="#bD"/><use transform="matrix(0.05,0,0,0.05,98.80000000000001,0)" xlink:href="#bb"/><use transform="matrix(0.05,0,0,0.05,108.80000000000001,0)" xlink:href="#bl"/><use transform="matrix(0.05,0,0,0.05,117.80000000000001,0)" xlink:href="#bg"/><use transform="matrix(0.05,0,0,0.05,122.80000000000001,0)" xlink:href="#aZ"/><use transform="matrix(0.05,0,0,0.05,132.8,0)" xlink:href="#bk"/><use transform="matrix(0.05,0,0,0.05,142.8,0)" xlink:href="#bd"/><use transform="matrix(0.05,0,0,0.05,148.75,0)" xlink:href="#aZ"/><use transform="matrix(0.05,0,0,0.05,158.75,0)" xlink:href="#aT"/><use transform="matrix(0.05,0,0,0.05,168.75,0)" xlink:href="#bg"/><use transform="matrix(0.05,0,0,0.05,173.75,0)" xlink:href="#br"/><use transform="matrix(0.05,0,0,0.05,179.7,0)" xlink:href="#bs"/></g><g id="J"><use transform="matrix(0.05,0,0,0.05,0,0)" xlink:href="#bo"/><use transform="matrix(0.05,0,0,0.05,5,0)" xlink:href="#ba"/><use transform="matrix(0.05,0,0,0.05,8.95,0)" xlink:href="#be"/><use transform="matrix(0.05,0,0,0.05,12.899999999999999,0)" xlink:href="#bg"/><use transform="matrix(0.05,0,0,0.05,17.9,0)" xlink:href="#bd"/><use transform="matrix(0.05,0,0,0.05,23.849999999999998,0)" xlink:href="#bb"/><use transform="matrix(0.05,0,0,0.05,33.849999999999994,0)" xlink:href="#bd"/><use transform="matrix(0.05,0,0,0.05,39.8,0)" xlink:href="#bp"/><use transform="matrix(0.05,0,0,0.05,49.8,0)" xlink:href="#ba"/><use transform="matrix(0.05,0,0,0.05,53.75,0)" xlink:href="#bl"/><use transform="matrix(0.05,0,0,0.05,62.75,0)" xlink:href="#bg"/><use transform="matrix(0.05,0,0,0.05,67.75,0)" xlink:href="#bb"/><use transform="matrix(0.05,0,0,0.05,77.75,0)" xlink:href="#bD"/><use transform="matrix(0.05,0,0,0.05,90.7,0)" xlink:href="#bb"/><use transform="matrix(0.05,0,0,0.05,100.7,0)" xlink:href="#bl"/><use transform="matrix(0.05,0,0,0.05,109.7,0)" xlink:href="#bg"/><use transform="matrix(0.05,0,0,0.05,114.7,0)" xlink:href="#aZ"/><use transform="matrix(0.05,0,0,0.05,124.7,0)" xlink:href="#bk"/><use transform="matrix(0.05,0,0,0.05,134.7,0)" xlink:href="#bd"/><use transform="matrix(0.05,0,0,0.05,140.64999999999998,0)" xlink:href="#aZ"/><use transform="matrix(0.05,0,0,0.05,150.64999999999998,0)" xlink:href="#aT"/><use transform="matrix(0.05,0,0,0.05,160.64999999999998,0)" xlink:href="#bg"/><use transform="matrix(0.05,0,0,0.05,165.64999999999998,0)" xlink:href="#br"/><use transform="matrix(0.05,0,0,0.05,171.59999999999997,0)" xlink:href="#bs"/></g><g id="K"><use transform="matrix(0.05,0,0,0.05,0,0)" xlink:href="#aZ"/><use transform="matrix(0.05,0,0,0.05,10,0)" xlink:href="#bo"/><use transform="matrix(0.05,0,0,0.05,14.65,0)" xlink:href="#bo"/><use transform="matrix(0.05,0,0,0.05,19.65,0)" xlink:href="#ba"/><use transform="matrix(0.05,0,0,0.05,23.599999999999998,0)" xlink:href="#aX"/><use transform="matrix(0.05,0,0,0.05,32.599999999999994,0)" xlink:href="#aY"/><use transform="matrix(0.05,0,0,0.05,42.599999999999994,0)" xlink:href="#bb"/><use transform="matrix(0.05,0,0,0.05,52.599999999999994,0)" xlink:href="#bd"/><use transform="matrix(0.05,0,0,0.05,58.54999999999999,0)" xlink:href="#bx"/><use transform="matrix(0.05,0,0,0.05,71.5,0)" xlink:href="#bb"/><use transform="matrix(0.05,0,0,0.05,81.5,0)" xlink:href="#bg"/><use transform="matrix(0.05,0,0,0.05,86.5,0)" xlink:href="#aZ"/><use transform="matrix(0.05,0,0,0.05,96.5,0)" xlink:href="#ba"/><use transform="matrix(0.05,0,0,0.05,100.45,0)" xlink:href="#be"/><use transform="matrix(0.05,0,0,0.05,104.4,0)" xlink:href="#bl"/><use transform="matrix(0.05,0,0,0.05,113.4,0)" xlink:href="#bD"/><use transform="matrix(0.05,0,0,0.05,126.35000000000001,0)" xlink:href="#bb"/><use transform="matrix(0.05,0,0,0.05,136.35000000000002,0)" xlink:href="#bl"/><use transform="matrix(0.05,0,0,0.05,145.35000000000002,0)" xlink:href="#bg"/><use transform="matrix(0.05,0,0,0.05,150.35000000000002,0)" xlink:href="#aZ"/><use transform="matrix(0.05,0,0,0.05,160.35000000000002,0)" xlink:href="#bk"/><use transform="matrix(0.05,0,0,0.05,170.35000000000002,0)" xlink:href="#bd"/><use transform="matrix(0.05,0,0,0.05,176.3,0)" xlink:href="#aZ"/><use transform="matrix(0.05,0,0,0.05,186.3,0)" xlink:href="#aT"/><use transform="matrix(0.05,0,0,0.05,196.3,0)" xlink:href="#bg"/><use transform="matrix(0.05,0,0,0.05,201.3,0)" xlink:href="#br"/><use transform="matrix(0.05,0,0,0.05,207.25,0)" xlink:href="#bs"/></g><g id="L"><use transform="matrix(0.05,0,0,0.05,0,0)" xlink:href="#aZ"/><use transform="matrix(0.05,0,0,0.05,10,0)" xlink:href="#bo"/><use transform="matrix(0.05,0,0,0.05,14.65,0)" xlink:href="#bo"/><use transform="matrix(0.05,0,0,0.05,19.65,0)" xlink:href="#ba"/><use transform="matrix(0.05,0,0,0.05,23.599999999999998,0)" xlink:href="#aX"/><use transform="matrix(0.05,0,0,0.05,32.599999999999994,0)" xlink:href="#aY"/><use transform="matrix(0.05,0,0,0.05,42.599999999999994,0)" xlink:href="#bb"/><use transform="matrix(0.05,0,0,0.05,52.599999999999994,0)" xlink:href="#bd"/><use transform="matrix(0.05,0,0,0.05,58.54999999999999,0)" xlink:href="#bq"/><use transform="matrix(0.05,0,0,0.05,71.5,0)" xlink:href="#aU"/><use transform="matrix(0.05,0,0,0.05,81.5,0)" xlink:href="#be"/><use transform="matrix(0.05,0,0,0.05,85.45,0)" xlink:href="#be"/><use transform="matrix(0.05,0,0,0.05,89.4,0)" xlink:href="#aZ"/><use transform="matrix(0.05,0,0,0.05,99.4,0)" xlink:href="#bj"/><use transform="matrix(0.05,0,0,0.05,109.4,0)" xlink:href="#aU"/><use transform="matrix(0.05,0,0,0.05,119.4,0)" xlink:href="#bd"/><use transform="matrix(0.05,0,0,0.05,125.35000000000001,0)" xlink:href="#aZ"/><use transform="matrix(0.05,0,0,0.05,135.35000000000002,0)" xlink:href="#bg"/><use transform="matrix(0.05,0,0,0.05,140.35000000000002,0)" xlink:href="#bb"/><use transform="matrix(0.05,0,0,0.05,150.35000000000002,0)" xlink:href="#bk"/><use transform="matrix(0.05,0,0,0.05,160.35000000000002,0)" xlink:href="#bd"/><use transform="matrix(0.05,0,0,0.05,166.3,0)" xlink:href="#bl"/><use transform="matrix(0.05,0,0,0.05,175.3,0)" xlink:href="#bw"/><use transform="matrix(0.05,0,0,0.05,187.3,0)" xlink:href="#aX"/><use transform="matrix(0.05,0,0,0.05,196.3,0)" xlink:href="#bg"/><use transform="matrix(0.05,0,0,0.05,201.3,0)" xlink:href="#ba"/><use transform="matrix(0.05,0,0,0.05,205.25,0)" xlink:href="#bo"/><use transform="matrix(0.05,0,0,0.05,210.25,0)" xlink:href="#br"/><use transform="matrix(0.05,0,0,0.05,216.19999999999996,0)" xlink:href="#bs"/></g><g id="M"><use transform="matrix(0.05,0,0,0.05,0,0)" xlink:href="#bo"/><use transform="matrix(0.05,0,0,0.05,5,0)" xlink:href="#ba"/><use transform="matrix(0.05,0,0,0.05,8.95,0)" xlink:href="#be"/><use transform="matrix(0.05,0,0,0.05,12.899999999999999,0)" xlink:href="#bg"/><use transform="matrix(0.05,0,0,0.05,17.9,0)" xlink:href="#bd"/><use transform="matrix(0.05,0,0,0.05,23.849999999999998,0)" xlink:href="#bb"/><use transform="matrix(0.05,0,0,0.05,33.849999999999994,0)" xlink:href="#bd"/><use transform="matrix(0.05,0,0,0.05,39.8,0)" xlink:href="#bp"/><use transform="matrix(0.05,0,0,0.05,49.8,0)" xlink:href="#ba"/><use transform="matrix(0.05,0,0,0.05,53.75,0)" xlink:href="#bl"/><use transform="matrix(0.05,0,0,0.05,62.75,0)" xlink:href="#bg"/><use transform="matrix(0.05,0,0,0.05,67.75,0)" xlink:href="#bb"/><use transform="matrix(0.05,0,0,0.05,77.75,0)" xlink:href="#bq"/><use transform="matrix(0.05,0,0,0.05,90.7,0)" xlink:href="#aU"/><use transform="matrix(0.05,0,0,0.05,100.7,0)" xlink:href="#be"/><use transform="matrix(0.05,0,0,0.05,104.65,0)" xlink:href="#be"/><use transform="matrix(0.05,0,0,0.05,108.60000000000001,0)" xlink:href="#aZ"/><use transform="matrix(0.05,0,0,0.05,118.60000000000001,0)" xlink:href="#bj"/><use transform="matrix(0.05,0,0,0.05,128.60000000000002,0)" xlink:href="#aU"/><use transform="matrix(0.05,0,0,0.05,138.60000000000002,0)" xlink:href="#bd"/><use transform="matrix(0.05,0,0,0.05,144.55,0)" xlink:href="#aZ"/><use transform="matrix(0.05,0,0,0.05,154.55,0)" xlink:href="#bg"/><use transform="matrix(0.05,0,0,0.05,159.55,0)" xlink:href="#bb"/><use transform="matrix(0.05,0,0,0.05,169.55,0)" xlink:href="#bk"/><use transform="matrix(0.05,0,0,0.05,179.55,0)" xlink:href="#bd"/><use transform="matrix(0.05,0,0,0.05,185.5,0)" xlink:href="#bl"/><use transform="matrix(0.05,0,0,0.05,194.5,0)" xlink:href="#bw"/><use transform="matrix(0.05,0,0,0.05,206.5,0)" xlink:href="#aX"/><use transform="matrix(0.05,0,0,0.05,215.5,0)" xlink:href="#bg"/><use transform="matrix(0.05,0,0,0.05,220.5,0)" xlink:href="#ba"/><use transform="matrix(0.05,0,0,0.05,224.44999999999996,0)" xlink:href="#bo"/><use transform="matrix(0.05,0,0,0.05,229.44999999999996,0)" xlink:href="#br"/><use transform="matrix(0.05,0,0,0.05,235.39999999999998,0)" xlink:href="#bs"/></g><path fill="#333" d="M197 0v-115H63V0H30v-248h33v105h134v-105h34V0h-34" id="bE"/><path fill="#333" d="M145-31C134-9 116 4 85 4 32 4 16-35 15-94c0-59 17-99 70-100 32-1 48 14 60 33 0-11-1-24 2-32h30l-1 268h-32zM93-21c41 0 51-33 51-76s-8-73-50-73c-40 0-46 35-46 75s5 74 45 74" id="bF"/><g id="N"><use transform="matrix(0.05,0,0,0.05,0,0)" xlink:href="#aZ"/><use transform="matrix(0.05,0,0,0.05,10,0)" xlink:href="#bo"/><use transform="matrix(0.05,0,0,0.05,14.65,0)" xlink:href="#bo"/><use transform="matrix(0.05,0,0,0.05,19.65,0)" xlink:href="#ba"/><use transform="matrix(0.05,0,0,0.05,23.599999999999998,0)" xlink:href="#aX"/><use transform="matrix(0.05,0,0,0.05,32.599999999999994,0)" xlink:href="#aY"/><use transform="matrix(0.05,0,0,0.05,42.599999999999994,0)" xlink:href="#bb"/><use transform="matrix(0.05,0,0,0.05,52.599999999999994,0)" xlink:href="#bd"/><use transform="matrix(0.05,0,0,0.05,58.54999999999999,0)" xlink:href="#bE"/><use transform="matrix(0.05,0,0,0.05,71.5,0)" xlink:href="#ba"/><use transform="matrix(0.05,0,0,0.05,75.45,0)" xlink:href="#bl"/><use transform="matrix(0.05,0,0,0.05,84.45,0)" xlink:href="#bg"/><use transform="matrix(0.05,0,0,0.05,89.45,0)" xlink:href="#aU"/><use transform="matrix(0.05,0,0,0.05,99.45,0)" xlink:href="#bd"/><use transform="matrix(0.05,0,0,0.05,105.4,0)" xlink:href="#ba"/><use transform="matrix(0.05,0,0,0.05,109.35000000000001,0)" xlink:href="#bF"/><use transform="matrix(0.05,0,0,0.05,119.35000000000001,0)" xlink:href="#bk"/><use transform="matrix(0.05,0,0,0.05,129.35000000000002,0)" xlink:href="#bb"/><use transform="matrix(0.05,0,0,0.05,139.35000000000002,0)" xlink:href="#bw"/><use transform="matrix(0.05,0,0,0.05,151.35000000000002,0)" xlink:href="#bo"/><use transform="matrix(0.05,0,0,0.05,156.00000000000003,0)" xlink:href="#bo"/><use transform="matrix(0.05,0,0,0.05,161.00000000000003,0)" xlink:href="#bb"/><use transform="matrix(0.05,0,0,0.05,171.00000000000003,0)" xlink:href="#aX"/><use transform="matrix(0.05,0,0,0.05,180.00000000000003,0)" xlink:href="#bg"/><use transform="matrix(0.05,0,0,0.05,185.00000000000003,0)" xlink:href="#aZ"/><use transform="matrix(0.05,0,0,0.05,195.00000000000003,0)" xlink:href="#bg"/><use transform="matrix(0.05,0,0,0.05,200.00000000000003,0)" xlink:href="#ba"/><use transform="matrix(0.05,0,0,0.05,203.95000000000002,0)" xlink:href="#aU"/><use transform="matrix(0.05,0,0,0.05,213.95000000000002,0)" xlink:href="#aT"/><use transform="matrix(0.05,0,0,0.05,223.95000000000002,0)" xlink:href="#br"/><use transform="matrix(0.05,0,0,0.05,229.9,0)" xlink:href="#bs"/></g><g id="O"><use transform="matrix(0.05,0,0,0.05,0,0)" xlink:href="#bo"/><use transform="matrix(0.05,0,0,0.05,5,0)" xlink:href="#ba"/><use transform="matrix(0.05,0,0,0.05,8.95,0)" xlink:href="#be"/><use transform="matrix(0.05,0,0,0.05,12.899999999999999,0)" xlink:href="#bg"/><use transform="matrix(0.05,0,0,0.05,17.9,0)" xlink:href="#bb"/><use transform="matrix(0.05,0,0,0.05,27.899999999999995,0)" xlink:href="#bd"/><use transform="matrix(0.05,0,0,0.05,33.85,0)" xlink:href="#bE"/><use transform="matrix(0.05,0,0,0.05,46.800000000000004,0)" xlink:href="#ba"/><use transform="matrix(0.05,0,0,0.05,50.75000000000001,0)" xlink:href="#bl"/><use transform="matrix(0.05,0,0,0.05,59.75,0)" xlink:href="#bg"/><use transform="matrix(0.05,0,0,0.05,64.75,0)" xlink:href="#aU"/><use transform="matrix(0.05,0,0,0.05,74.75,0)" xlink:href="#bd"/><use transform="matrix(0.05,0,0,0.05,80.7,0)" xlink:href="#ba"/><use transform="matrix(0.05,0,0,0.05,84.65,0)" xlink:href="#bF"/><use transform="matrix(0.05,0,0,0.05,94.65,0)" xlink:href="#bk"/><use transform="matrix(0.05,0,0,0.05,104.65,0)" xlink:href="#bb"/><use transform="matrix(0.05,0,0,0.05,114.65,0)" xlink:href="#bw"/><use transform="matrix(0.05,0,0,0.05,126.65,0)" xlink:href="#bo"/><use transform="matrix(0.05,0,0,0.05,131.3,0)" xlink:href="#bo"/><use transform="matrix(0.05,0,0,0.05,136.3,0)" xlink:href="#bb"/><use transform="matrix(0.05,0,0,0.05,146.3,0)" xlink:href="#aX"/><use transform="matrix(0.05,0,0,0.05,155.3,0)" xlink:href="#bg"/><use transform="matrix(0.05,0,0,0.05,160.3,0)" xlink:href="#aZ"/><use transform="matrix(0.05,0,0,0.05,170.3,0)" xlink:href="#bg"/><use transform="matrix(0.05,0,0,0.05,175.3,0)" xlink:href="#ba"/><use transform="matrix(0.05,0,0,0.05,179.25,0)" xlink:href="#aU"/><use transform="matrix(0.05,0,0,0.05,189.25,0)" xlink:href="#aT"/><use transform="matrix(0.05,0,0,0.05,199.25,0)" xlink:href="#br"/><use transform="matrix(0.05,0,0,0.05,205.19999999999996,0)" xlink:href="#bs"/></g><g id="P"><use transform="matrix(0.05,0,0,0.05,0,0)" xlink:href="#aZ"/><use transform="matrix(0.05,0,0,0.05,10,0)" xlink:href="#bo"/><use transform="matrix(0.05,0,0,0.05,14.65,0)" xlink:href="#bo"/><use transform="matrix(0.05,0,0,0.05,19.65,0)" xlink:href="#bb"/><use transform="matrix(0.05,0,0,0.05,29.649999999999995,0)" xlink:href="#aX"/><use transform="matrix(0.05,0,0,0.05,38.65,0)" xlink:href="#bg"/><use transform="matrix(0.05,0,0,0.05,43.65,0)" xlink:href="#bb"/><use transform="matrix(0.05,0,0,0.05,53.650000000000006,0)" xlink:href="#bd"/><use transform="matrix(0.05,0,0,0.05,59.6,0)" xlink:href="#bu"/><use transform="matrix(0.05,0,0,0.05,72.55,0)" xlink:href="#aU"/><use transform="matrix(0.05,0,0,0.05,82.55,0)" xlink:href="#bk"/><use transform="matrix(0.05,0,0,0.05,92.55,0)" xlink:href="#bv"/><use transform="matrix(0.05,0,0,0.05,101.55,0)" xlink:href="#bb"/><use transform="matrix(0.05,0,0,0.05,111.55000000000001,0)" xlink:href="#aZ"/><use transform="matrix(0.05,0,0,0.05,121.55000000000001,0)" xlink:href="#bk"/><use transform="matrix(0.05,0,0,0.05,131.55,0)" xlink:href="#bq"/><use transform="matrix(0.05,0,0,0.05,144.5,0)" xlink:href="#aU"/><use transform="matrix(0.05,0,0,0.05,154.5,0)" xlink:href="#be"/><use transform="matrix(0.05,0,0,0.05,158.45,0)" xlink:href="#be"/><use transform="matrix(0.05,0,0,0.05,162.39999999999998,0)" xlink:href="#aZ"/><use transform="matrix(0.05,0,0,0.05,172.39999999999998,0)" xlink:href="#bj"/><use transform="matrix(0.05,0,0,0.05,182.39999999999998,0)" xlink:href="#aU"/><use transform="matrix(0.05,0,0,0.05,192.39999999999998,0)" xlink:href="#bd"/><use transform="matrix(0.05,0,0,0.05,198.34999999999997,0)" xlink:href="#aZ"/><use transform="matrix(0.05,0,0,0.05,208.34999999999997,0)" xlink:href="#bg"/><use transform="matrix(0.05,0,0,0.05,213.34999999999997,0)" xlink:href="#bb"/><use transform="matrix(0.05,0,0,0.05,223.34999999999997,0)" xlink:href="#bk"/><use transform="matrix(0.05,0,0,0.05,233.34999999999997,0)" xlink:href="#bd"/><use transform="matrix(0.05,0,0,0.05,239.29999999999995,0)" xlink:href="#br"/><use transform="matrix(0.05,0,0,0.05,245.24999999999991,0)" xlink:href="#bs"/></g><g id="Q"><use transform="matrix(0.05,0,0,0.05,0,0)" xlink:href="#aZ"/><use transform="matrix(0.05,0,0,0.05,10,0)" xlink:href="#bt"/><use transform="matrix(0.05,0,0,0.05,13.949999999999998,0)" xlink:href="#aU"/><use transform="matrix(0.05,0,0,0.05,23.95,0)" xlink:href="#bk"/><use transform="matrix(0.05,0,0,0.05,33.95,0)" xlink:href="#bg"/><use transform="matrix(0.05,0,0,0.05,38.95,0)" xlink:href="#bb"/><use transform="matrix(0.05,0,0,0.05,48.95,0)" xlink:href="#bd"/><use transform="matrix(0.05,0,0,0.05,54.900000000000006,0)" xlink:href="#bD"/><use transform="matrix(0.05,0,0,0.05,67.85000000000001,0)" xlink:href="#bb"/><use transform="matrix(0.05,0,0,0.05,77.85000000000001,0)" xlink:href="#bl"/><use transform="matrix(0.05,0,0,0.05,86.85000000000001,0)" xlink:href="#bg"/><use transform="matrix(0.05,0,0,0.05,91.85000000000001,0)" xlink:href="#aZ"/><use transform="matrix(0.05,0,0,0.05,101.85000000000001,0)" xlink:href="#bk"/><use transform="matrix(0.05,0,0,0.05,111.85000000000001,0)" xlink:href="#bd"/><use transform="matrix(0.05,0,0,0.05,117.80000000000001,0)" xlink:href="#aZ"/><use transform="matrix(0.05,0,0,0.05,127.80000000000001,0)" xlink:href="#aT"/><use transform="matrix(0.05,0,0,0.05,137.8,0)" xlink:href="#bg"/><use transform="matrix(0.05,0,0,0.05,142.8,0)" xlink:href="#br"/><use transform="matrix(0.05,0,0,0.05,148.75,0)" xlink:href="#bs"/></g><path fill="#333" d="M76-208v77h127v40H76V0H24v-248h183v40H76" id="bG"/><path fill="#333" d="M110-194c64 0 96 36 96 99 0 64-35 99-97 99-61 0-95-36-95-99 0-62 34-99 96-99zm-1 164c35 0 45-28 45-65 0-40-10-65-43-65-34 0-45 26-45 65 0 36 10 65 43 65" id="bH"/><path fill="#333" d="M190-63c-7 42-38 67-86 67-59 0-84-38-90-98-12-110 154-137 174-36l-49 2c-2-19-15-32-35-32-30 0-35 28-38 64-6 74 65 87 74 30" id="bI"/><path fill="#333" d="M25-224v-37h50v37H25zM25 0v-190h50V0H25" id="bJ"/><g id="R"><use transform="matrix(0.05,0,0,0.05,0,0)" xlink:href="#bG"/><use transform="matrix(0.05,0,0,0.05,10.950000000000001,0)" xlink:href="#bH"/><use transform="matrix(0.05,0,0,0.05,21.900000000000002,0)" xlink:href="#bC"/><use transform="matrix(0.05,0,0,0.05,32.85,0)" xlink:href="#bI"/><use transform="matrix(0.05,0,0,0.05,42.85,0)" xlink:href="#bz"/><use transform="matrix(0.05,0,0,0.05,48.800000000000004,0)" xlink:href="#bJ"/><use transform="matrix(0.05,0,0,0.05,53.800000000000004,0)" xlink:href="#bH"/><use transform="matrix(0.05,0,0,0.05,64.75,0)" xlink:href="#bC"/><use transform="matrix(0.05,0,0,0.05,75.7,0)" xlink:href="#aP"/></g><path fill="#333" d="M63-220v92h138v28H63V0H30v-248h175v28H63" id="bK"/><g id="S"><use transform="matrix(0.05,0,0,0.05,0,0)" xlink:href="#aZ"/><use transform="matrix(0.05,0,0,0.05,10,0)" xlink:href="#bo"/><use transform="matrix(0.05,0,0,0.05,14.65,0)" xlink:href="#bo"/><use transform="matrix(0.05,0,0,0.05,19.65,0)" xlink:href="#ba"/><use transform="matrix(0.05,0,0,0.05,23.599999999999998,0)" xlink:href="#aX"/><use transform="matrix(0.05,0,0,0.05,32.599999999999994,0)" xlink:href="#aY"/><use transform="matrix(0.05,0,0,0.05,42.599999999999994,0)" xlink:href="#bb"/><use transform="matrix(0.05,0,0,0.05,52.599999999999994,0)" xlink:href="#bd"/><use transform="matrix(0.05,0,0,0.05,58.54999999999999,0)" xlink:href="#bp"/><use transform="matrix(0.05,0,0,0.05,68.55,0)" xlink:href="#ba"/><use transform="matrix(0.05,0,0,0.05,72.5,0)" xlink:href="#bl"/><use transform="matrix(0.05,0,0,0.05,81.5,0)" xlink:href="#bg"/><use transform="matrix(0.05,0,0,0.05,86.5,0)" xlink:href="#bb"/><use transform="matrix(0.05,0,0,0.05,96.5,0)" xlink:href="#bK"/><use transform="matrix(0.05,0,0,0.05,107.45,0)" xlink:href="#aU"/><use transform="matrix(0.05,0,0,0.05,117.45,0)" xlink:href="#aT"/><use transform="matrix(0.05,0,0,0.05,127.45,0)" xlink:href="#aX"/><use transform="matrix(0.05,0,0,0.05,136.45,0)" xlink:href="#bg"/><use transform="matrix(0.05,0,0,0.05,141.45,0)" xlink:href="#ba"/><use transform="matrix(0.05,0,0,0.05,145.39999999999998,0)" xlink:href="#aU"/><use transform="matrix(0.05,0,0,0.05,155.39999999999998,0)" xlink:href="#aT"/><use transform="matrix(0.05,0,0,0.05,165.39999999999998,0)" xlink:href="#br"/><use transform="matrix(0.05,0,0,0.05,171.34999999999997,0)" xlink:href="#bs"/></g><g id="T"><use transform="matrix(0.05,0,0,0.05,0,0)" xlink:href="#aZ"/><use transform="matrix(0.05,0,0,0.05,10,0)" xlink:href="#bt"/><use transform="matrix(0.05,0,0,0.05,13.949999999999998,0)" xlink:href="#aU"/><use transform="matrix(0.05,0,0,0.05,23.95,0)" xlink:href="#bk"/><use transform="matrix(0.05,0,0,0.05,33.95,0)" xlink:href="#bg"/><use transform="matrix(0.05,0,0,0.05,38.95,0)" xlink:href="#bb"/><use transform="matrix(0.05,0,0,0.05,48.95,0)" xlink:href="#bd"/><use transform="matrix(0.05,0,0,0.05,54.900000000000006,0)" xlink:href="#bu"/><use transform="matrix(0.05,0,0,0.05,67.85000000000001,0)" xlink:href="#aU"/><use transform="matrix(0.05,0,0,0.05,77.85000000000001,0)" xlink:href="#bk"/><use transform="matrix(0.05,0,0,0.05,87.85000000000001,0)" xlink:href="#bv"/><use transform="matrix(0.05,0,0,0.05,96.85000000000001,0)" xlink:href="#bb"/><use transform="matrix(0.05,0,0,0.05,106.85000000000001,0)" xlink:href="#be"/><use transform="matrix(0.05,0,0,0.05,110.80000000000001,0)" xlink:href="#be"/><use transform="matrix(0.05,0,0,0.05,114.75,0)" xlink:href="#bb"/><use transform="matrix(0.05,0,0,0.05,124.75,0)" xlink:href="#bK"/><use transform="matrix(0.05,0,0,0.05,135.70000000000002,0)" xlink:href="#aU"/><use transform="matrix(0.05,0,0,0.05,145.70000000000002,0)" xlink:href="#aT"/><use transform="matrix(0.05,0,0,0.05,155.70000000000002,0)" xlink:href="#aX"/><use transform="matrix(0.05,0,0,0.05,164.70000000000002,0)" xlink:href="#bg"/><use transform="matrix(0.05,0,0,0.05,169.70000000000002,0)" xlink:href="#ba"/><use transform="matrix(0.05,0,0,0.05,173.65,0)" xlink:href="#aU"/><use transform="matrix(0.05,0,0,0.05,183.65,0)" xlink:href="#aT"/><use transform="matrix(0.05,0,0,0.05,193.65,0)" xlink:href="#br"/><use transform="matrix(0.05,0,0,0.05,199.6,0)" xlink:href="#bs"/></g><g id="U"><use transform="matrix(0.05,0,0,0.05,0,0)" xlink:href="#bb"/><use transform="matrix(0.05,0,0,0.05,10,0)" xlink:href="#bf"/><use transform="matrix(0.05,0,0,0.05,20,0)" xlink:href="#ba"/><use transform="matrix(0.05,0,0,0.05,23.95,0)" xlink:href="#bg"/><use transform="matrix(0.05,0,0,0.05,28.950000000000003,0)" xlink:href="#bb"/><use transform="matrix(0.05,0,0,0.05,38.95,0)" xlink:href="#bd"/><use transform="matrix(0.05,0,0,0.05,44.900000000000006,0)" xlink:href="#bK"/><use transform="matrix(0.05,0,0,0.05,55.85,0)" xlink:href="#aU"/><use transform="matrix(0.05,0,0,0.05,65.85000000000001,0)" xlink:href="#aT"/><use transform="matrix(0.05,0,0,0.05,75.85000000000001,0)" xlink:href="#aX"/><use transform="matrix(0.05,0,0,0.05,84.85000000000001,0)" xlink:href="#bg"/><use transform="matrix(0.05,0,0,0.05,89.85000000000001,0)" xlink:href="#ba"/><use transform="matrix(0.05,0,0,0.05,93.80000000000001,0)" xlink:href="#aU"/><use transform="matrix(0.05,0,0,0.05,103.80000000000001,0)" xlink:href="#aT"/><use transform="matrix(0.05,0,0,0.05,113.80000000000001,0)" xlink:href="#br"/><use transform="matrix(0.05,0,0,0.05,119.75,0)" xlink:href="#bs"/></g><path fill="#333" d="M199 0l-22-63H83L61 0H9l90-248h61L250 0h-51zm-33-102l-36-108c-10 38-24 72-36 108h72" id="bL"/><path fill="#333" d="M121-226c-27-7-43 5-38 36h38v33H83V0H34v-157H6v-33h28c-9-59 32-81 87-68v32" id="bM"/><g id="V"><use transform="matrix(0.05,0,0,0.05,0,0)" xlink:href="#bL"/><use transform="matrix(0.05,0,0,0.05,12.950000000000001,0)" xlink:href="#bM"/><use transform="matrix(0.05,0,0,0.05,18.900000000000002,0)" xlink:href="#bM"/><use transform="matrix(0.05,0,0,0.05,24.85,0)" xlink:href="#aQ"/><use transform="matrix(0.05,0,0,0.05,34.85,0)" xlink:href="#bI"/><use transform="matrix(0.05,0,0,0.05,44.85,0)" xlink:href="#bz"/><use transform="matrix(0.05,0,0,0.05,50.800000000000004,0)" xlink:href="#bA"/><use transform="matrix(0.05,0,0,0.05,60.800000000000004,0)" xlink:href="#bz"/><use transform="matrix(0.05,0,0,0.05,66.75,0)" xlink:href="#bJ"/><use transform="matrix(0.05,0,0,0.05,71.75,0)" xlink:href="#bH"/><use transform="matrix(0.05,0,0,0.05,82.7,0)" xlink:href="#bC"/><use transform="matrix(0.05,0,0,0.05,93.65,0)" xlink:href="#aP"/></g><g id="X"><use transform="matrix(0.05,0,0,0.05,0,0)" xlink:href="#bf"/><use transform="matrix(0.05,0,0,0.05,10,0)" xlink:href="#aZ"/><use transform="matrix(0.05,0,0,0.05,20,0)" xlink:href="#bg"/><use transform="matrix(0.05,0,0,0.05,25,0)" xlink:href="#bb"/><use transform="matrix(0.05,0,0,0.05,35,0)" xlink:href="#bx"/><use transform="matrix(0.05,0,0,0.05,47.95,0)" xlink:href="#bb"/><use transform="matrix(0.05,0,0,0.05,57.95,0)" xlink:href="#bj"/><use transform="matrix(0.05,0,0,0.05,67.95,0)" xlink:href="#bk"/><use transform="matrix(0.05,0,0,0.05,77.95,0)" xlink:href="#bg"/></g><g id="Y"><use transform="matrix(0.05,0,0,0.05,0,0)" xlink:href="#bf"/><use transform="matrix(0.05,0,0,0.05,10,0)" xlink:href="#aZ"/><use transform="matrix(0.05,0,0,0.05,20,0)" xlink:href="#bg"/><use transform="matrix(0.05,0,0,0.05,25,0)" xlink:href="#bb"/><use transform="matrix(0.05,0,0,0.05,35,0)" xlink:href="#bK"/><use transform="matrix(0.05,0,0,0.05,45.95,0)" xlink:href="#ba"/><use transform="matrix(0.05,0,0,0.05,49.900000000000006,0)" xlink:href="#aT"/></g><g id="Z"><use transform="matrix(0.05,0,0,0.05,0,0)" xlink:href="#bf"/><use transform="matrix(0.05,0,0,0.05,10,0)" xlink:href="#aZ"/><use transform="matrix(0.05,0,0,0.05,20,0)" xlink:href="#bg"/><use transform="matrix(0.05,0,0,0.05,25,0)" xlink:href="#bb"/></g><g id="aa"><use transform="matrix(0.05,0,0,0.05,0,0)" xlink:href="#aZ"/><use transform="matrix(0.05,0,0,0.05,10,0)" xlink:href="#bo"/><use transform="matrix(0.05,0,0,0.05,14.65,0)" xlink:href="#bo"/><use transform="matrix(0.05,0,0,0.05,19.65,0)" xlink:href="#ba"/><use transform="matrix(0.05,0,0,0.05,23.599999999999998,0)" xlink:href="#aX"/><use transform="matrix(0.05,0,0,0.05,32.599999999999994,0)" xlink:href="#aY"/><use transform="matrix(0.05,0,0,0.05,42.599999999999994,0)" xlink:href="#bb"/><use transform="matrix(0.05,0,0,0.05,52.599999999999994,0)" xlink:href="#bd"/><use transform="matrix(0.05,0,0,0.05,58.54999999999999,0)" xlink:href="#bp"/><use transform="matrix(0.05,0,0,0.05,68.55,0)" xlink:href="#ba"/><use transform="matrix(0.05,0,0,0.05,72.5,0)" xlink:href="#bl"/><use transform="matrix(0.05,0,0,0.05,81.5,0)" xlink:href="#bg"/><use transform="matrix(0.05,0,0,0.05,86.5,0)" xlink:href="#bb"/><use transform="matrix(0.05,0,0,0.05,96.5,0)" xlink:href="#bw"/><use transform="matrix(0.05,0,0,0.05,108.5,0)" xlink:href="#bo"/><use transform="matrix(0.05,0,0,0.05,113.15,0)" xlink:href="#bo"/><use transform="matrix(0.05,0,0,0.05,118.15,0)" xlink:href="#bb"/><use transform="matrix(0.05,0,0,0.05,128.15,0)" xlink:href="#aX"/><use transform="matrix(0.05,0,0,0.05,137.15,0)" xlink:href="#bg"/><use transform="matrix(0.05,0,0,0.05,142.15,0)" xlink:href="#aZ"/><use transform="matrix(0.05,0,0,0.05,152.15,0)" xlink:href="#bg"/><use transform="matrix(0.05,0,0,0.05,157.15,0)" xlink:href="#ba"/><use transform="matrix(0.05,0,0,0.05,161.1,0)" xlink:href="#aU"/><use transform="matrix(0.05,0,0,0.05,171.1,0)" xlink:href="#aT"/><use transform="matrix(0.05,0,0,0.05,181.1,0)" xlink:href="#br"/><use transform="matrix(0.05,0,0,0.05,187.04999999999998,0)" xlink:href="#bs"/></g><g id="ab"><use transform="matrix(0.05,0,0,0.05,0,0)" xlink:href="#bd"/><use transform="matrix(0.05,0,0,0.05,5.95,0)" xlink:href="#bb"/><use transform="matrix(0.05,0,0,0.05,15.949999999999998,0)" xlink:href="#aX"/><use transform="matrix(0.05,0,0,0.05,24.95,0)" xlink:href="#aY"/><use transform="matrix(0.05,0,0,0.05,34.95,0)" xlink:href="#bb"/><use transform="matrix(0.05,0,0,0.05,44.95,0)" xlink:href="#bd"/><use transform="matrix(0.05,0,0,0.05,50.900000000000006,0)" xlink:href="#aX"/><use transform="matrix(0.05,0,0,0.05,59.900000000000006,0)" xlink:href="#aY"/><use transform="matrix(0.05,0,0,0.05,69.9,0)" xlink:href="#bb"/><use transform="matrix(0.05,0,0,0.05,79.9,0)" xlink:href="#bd"/><use transform="matrix(0.05,0,0,0.05,85.85000000000001,0)" xlink:href="#bw"/><use transform="matrix(0.05,0,0,0.05,97.85000000000001,0)" xlink:href="#bo"/><use transform="matrix(0.05,0,0,0.05,102.5,0)" xlink:href="#bo"/><use transform="matrix(0.05,0,0,0.05,107.5,0)" xlink:href="#bb"/><use transform="matrix(0.05,0,0,0.05,117.5,0)" xlink:href="#aX"/><use transform="matrix(0.05,0,0,0.05,126.5,0)" xlink:href="#bg"/><use transform="matrix(0.05,0,0,0.05,131.5,0)" xlink:href="#aZ"/><use transform="matrix(0.05,0,0,0.05,141.5,0)" xlink:href="#bg"/><use transform="matrix(0.05,0,0,0.05,146.5,0)" xlink:href="#ba"/><use transform="matrix(0.05,0,0,0.05,150.45,0)" xlink:href="#aU"/><use transform="matrix(0.05,0,0,0.05,160.45,0)" xlink:href="#aT"/><use transform="matrix(0.05,0,0,0.05,170.45,0)" xlink:href="#br"/><use transform="matrix(0.05,0,0,0.05,176.39999999999998,0)" xlink:href="#bs"/></g><g id="ac"><use transform="matrix(0.05,0,0,0.05,0,0)" xlink:href="#bo"/><use transform="matrix(0.05,0,0,0.05,5,0)" xlink:href="#ba"/><use transform="matrix(0.05,0,0,0.05,8.95,0)" xlink:href="#be"/><use transform="matrix(0.05,0,0,0.05,12.899999999999999,0)" xlink:href="#bg"/><use transform="matrix(0.05,0,0,0.05,17.9,0)" xlink:href="#bd"/><use transform="matrix(0.05,0,0,0.05,23.849999999999998,0)" xlink:href="#bb"/><use transform="matrix(0.05,0,0,0.05,33.849999999999994,0)" xlink:href="#bd"/><use transform="matrix(0.05,0,0,0.05,39.8,0)" xlink:href="#bw"/><use transform="matrix(0.05,0,0,0.05,51.79999999999999,0)" xlink:href="#bo"/><use transform="matrix(0.05,0,0,0.05,56.44999999999999,0)" xlink:href="#bo"/><use transform="matrix(0.05,0,0,0.05,61.44999999999999,0)" xlink:href="#bb"/><use transform="matrix(0.05,0,0,0.05,71.44999999999999,0)" xlink:href="#aX"/><use transform="matrix(0.05,0,0,0.05,80.44999999999999,0)" xlink:href="#bg"/><use transform="matrix(0.05,0,0,0.05,85.44999999999999,0)" xlink:href="#aZ"/><use transform="matrix(0.05,0,0,0.05,95.44999999999999,0)" xlink:href="#bg"/><use transform="matrix(0.05,0,0,0.05,100.44999999999999,0)" xlink:href="#ba"/><use transform="matrix(0.05,0,0,0.05,104.39999999999998,0)" xlink:href="#aU"/><use transform="matrix(0.05,0,0,0.05,114.39999999999998,0)" xlink:href="#aT"/><use transform="matrix(0.05,0,0,0.05,124.39999999999998,0)" xlink:href="#br"/><use transform="matrix(0.05,0,0,0.05,130.35,0)" xlink:href="#bs"/></g><path fill="#333" d="M23 0v-37h61v-169l-59 37v-38l62-41h46v211h57V0H23" id="bN"/><use transform="matrix(0.04938271604938272,0,0,0.04938271604938272,0,0)" xlink:href="#bN" id="ad"/><path fill="#333" d="M101-251c68 0 84 54 84 127C185-50 166 4 99 4S15-52 14-124c-1-75 17-127 87-127zm-1 216c37-5 36-46 36-89s4-89-36-89c-39 0-36 45-36 89 0 43-3 85 36 89" id="bO"/><path fill="#333" d="M24 0v-54h51V0H24" id="bP"/><path fill="#333" d="M86-200l42-18 12 35-44 11 32 37-32 21-26-44-26 44-32-21 33-37-44-11 12-35 42 18-3-48h38" id="bQ"/><g id="ae"><use transform="matrix(0.04938271604938272,0,0,0.04938271604938272,0,0)" xlink:href="#bO"/><use transform="matrix(0.04938271604938272,0,0,0.04938271604938272,9.876543209876544,0)" xlink:href="#bP"/><use transform="matrix(0.04938271604938272,0,0,0.04938271604938272,14.814814814814817,0)" xlink:href="#bP"/><use transform="matrix(0.04938271604938272,0,0,0.04938271604938272,19.75308641975309,0)" xlink:href="#bQ"/></g><path d="M18-100v-36l175-74v27L42-118l151 64v27" id="bR"/><path d="M30 0v-248h187v28H63v79h144v27H63v87h162V0H30" id="bS"/><path d="M117-194c89-4 53 116 60 194h-32v-121c0-31-8-49-39-48C34-167 62-67 57 0H25l-1-190h30c1 10-1 24 2 32 11-22 29-35 61-36" id="bT"/><path d="M84 4C-5 8 30-112 23-190h32v120c0 31 7 50 39 49 72-2 45-101 50-169h31l1 190h-30c-1-10 1-25-2-33-11 22-28 36-60 37" id="bU"/><path d="M210-169c-67 3-38 105-44 169h-31v-121c0-29-5-50-35-48C34-165 62-65 56 0H25l-1-190h30c1 10-1 24 2 32 10-44 99-50 107 0 11-21 27-35 58-36 85-2 47 119 55 194h-31v-121c0-29-5-49-35-48" id="bV"/><path d="M18-27v-27l151-64-151-65v-27l175 74v36" id="bW"/><g id="af"><use transform="matrix(0.06172839506172839,0,0,0.06172839506172839,0,0)" xlink:href="#bR"/><use transform="matrix(0.06172839506172839,0,0,0.06172839506172839,12.962962962962962,0)" xlink:href="#bR"/><use transform="matrix(0.06172839506172839,0,0,0.06172839506172839,25.925925925925924,0)" xlink:href="#bS"/><use transform="matrix(0.06172839506172839,0,0,0.06172839506172839,40.74074074074073,0)" xlink:href="#bT"/><use transform="matrix(0.06172839506172839,0,0,0.06172839506172839,53.08641975308641,0)" xlink:href="#bU"/><use transform="matrix(0.06172839506172839,0,0,0.06172839506172839,65.43209876543209,0)" xlink:href="#bV"/><use transform="matrix(0.06172839506172839,0,0,0.06172839506172839,83.88888888888887,0)" xlink:href="#bW"/><use transform="matrix(0.06172839506172839,0,0,0.06172839506172839,96.85185185185183,0)" xlink:href="#bW"/></g><path d="M233-177c-1 41-23 64-60 70L243 0h-38l-65-103H63V0H30v-248c88 3 205-21 203 71zM63-129c60-2 137 13 137-47 0-61-80-42-137-45v92" id="bX"/><path d="M100-194c62-1 85 37 85 99 1 63-27 99-86 99S16-35 15-95c0-66 28-99 85-99zM99-20c44 1 53-31 53-75 0-43-8-75-51-75s-53 32-53 75 10 74 51 75" id="bY"/><path d="M24 0v-261h32V0H24" id="bZ"/><path d="M100-194c63 0 86 42 84 106H49c0 40 14 67 53 68 26 1 43-12 49-29l28 8c-11 28-37 45-77 45C44 4 14-33 15-96c1-61 26-98 85-98zm52 81c6-60-76-77-97-28-3 7-6 17-6 28h103" id="ca"/><g id="ag"><use transform="matrix(0.06172839506172839,0,0,0.06172839506172839,0,0)" xlink:href="#bX"/><use transform="matrix(0.06172839506172839,0,0,0.06172839506172839,15.987654320987653,0)" xlink:href="#bY"/><use transform="matrix(0.06172839506172839,0,0,0.06172839506172839,28.333333333333332,0)" xlink:href="#bZ"/><use transform="matrix(0.06172839506172839,0,0,0.06172839506172839,33.20987654320987,0)" xlink:href="#ca"/></g><path d="M16-82v-28h88v28H16" id="cb"/><path d="M135-143c-3-34-86-38-87 0 15 53 115 12 119 90S17 21 10-45l28-5c4 36 97 45 98 0-10-56-113-15-118-90-4-57 82-63 122-42 12 7 21 19 24 35" id="cc"/><path d="M114-163C36-179 61-72 57 0H25l-1-190h30c1 12-1 29 2 39 6-27 23-49 58-41v29" id="cd"/><g id="ah"><use transform="matrix(0.06172839506172839,0,0,0.06172839506172839,0,0)" xlink:href="#cb"/><use transform="matrix(0.06172839506172839,0,0,0.06172839506172839,7.345679012345679,0)" xlink:href="#bU"/><use transform="matrix(0.06172839506172839,0,0,0.06172839506172839,19.691358024691358,0)" xlink:href="#cc"/><use transform="matrix(0.06172839506172839,0,0,0.06172839506172839,30.80246913580247,0)" xlink:href="#ca"/><use transform="matrix(0.06172839506172839,0,0,0.06172839506172839,43.148148148148145,0)" xlink:href="#cd"/></g><use transform="matrix(0.06172839506172839,0,0,0.06172839506172839,0,0)" xlink:href="#cb" id="ai"/><path d="M141-36C126-15 110 5 73 4 37 3 15-17 15-53c-1-64 63-63 125-63 3-35-9-54-41-54-24 1-41 7-42 31l-33-3c5-37 33-52 76-52 45 0 72 20 72 64v82c-1 20 7 32 28 27v20c-31 9-61-2-59-35zM48-53c0 20 12 33 32 33 41-3 63-29 60-74-43 2-92-5-92 41" id="ce"/><path d="M85-194c31 0 48 13 60 33l-1-100h32l1 261h-30c-2-10 0-23-3-31C134-8 116 4 85 4 32 4 16-35 15-94c0-66 23-100 70-100zm9 24c-40 0-46 34-46 75 0 40 6 74 45 74 42 0 51-32 51-76 0-42-9-74-50-73" id="cf"/><path d="M24-231v-30h32v30H24zM24 0v-190h32V0H24" id="cg"/><g id="aj"><use transform="matrix(0.06172839506172839,0,0,0.06172839506172839,0,0)" xlink:href="#ce"/><use transform="matrix(0.06172839506172839,0,0,0.06172839506172839,12.345679012345679,0)" xlink:href="#cf"/><use transform="matrix(0.06172839506172839,0,0,0.06172839506172839,24.691358024691358,0)" xlink:href="#bV"/><use transform="matrix(0.06172839506172839,0,0,0.06172839506172839,43.148148148148145,0)" xlink:href="#cg"/><use transform="matrix(0.06172839506172839,0,0,0.06172839506172839,48.02469135802469,0)" xlink:href="#bT"/></g><use transform="matrix(0.06172839506172839,0,0,0.06172839506172839,0,0)" xlink:href="#cb" id="ak"/><path d="M115-194c55 1 70 41 70 98S169 2 115 4C84 4 66-9 55-30l1 105H24l-1-265h31l2 30c10-21 28-34 59-34zm-8 174c40 0 45-34 45-75s-6-73-45-74c-42 0-51 32-51 76 0 43 10 73 51 73" id="ch"/><g id="al"><use transform="matrix(0.06172839506172839,0,0,0.06172839506172839,0,0)" xlink:href="#cc"/><use transform="matrix(0.06172839506172839,0,0,0.06172839506172839,11.11111111111111,0)" xlink:href="#bU"/><use transform="matrix(0.06172839506172839,0,0,0.06172839506172839,23.45679012345679,0)" xlink:href="#ch"/><use transform="matrix(0.06172839506172839,0,0,0.06172839506172839,35.80246913580247,0)" xlink:href="#ca"/><use transform="matrix(0.06172839506172839,0,0,0.06172839506172839,48.148148148148145,0)" xlink:href="#cd"/><use transform="matrix(0.06172839506172839,0,0,0.06172839506172839,55.49382716049382,0)" xlink:href="#ce"/><use transform="matrix(0.06172839506172839,0,0,0.06172839506172839,67.8395061728395,0)" xlink:href="#cf"/><use transform="matrix(0.06172839506172839,0,0,0.06172839506172839,80.18518518518519,0)" xlink:href="#bV"/><use transform="matrix(0.06172839506172839,0,0,0.06172839506172839,98.64197530864197,0)" xlink:href="#cg"/><use transform="matrix(0.06172839506172839,0,0,0.06172839506172839,103.51851851851852,0)" xlink:href="#bT"/></g></defs></g></svg>